<svg width="80" height="81" viewBox="0 0 80 81" fill="none" xmlns="http://www.w3.org/2000/svg">
<g clip-path="url(#clip0_31_328)">
<path d="M8.55596 71.4595C6.67179 71.4595 4.91117 71.4595 3.13511 71.4595C2.10036 71.4595 1.20461 71.1351 0.571405 70.2703C-0.0926873 69.3591 -0.200795 68.3707 0.277969 67.3513C0.787622 66.2703 1.69882 65.7297 2.87256 65.6988C4.44785 65.6679 6.0077 65.6834 7.58299 65.6834C7.86098 65.6834 8.13897 65.6834 8.47874 65.6834C8.47874 62.8262 8.47874 60.0463 8.47874 57.1429C7.33588 57.1429 6.20847 57.1429 5.08106 57.1429C4.35519 57.1429 3.64476 57.1583 2.9189 57.1429C1.2355 57.0965 -2.31471e-05 55.8764 -2.31471e-05 54.2703C-2.31471e-05 52.6795 1.2355 51.444 2.9189 51.4131C4.72585 51.3822 6.51735 51.3822 8.3243 51.3822C8.33975 51.3822 8.37063 51.3668 8.4633 51.3205C8.4633 48.5714 8.4633 45.7915 8.4633 42.9189C8.20075 42.9035 7.9382 42.888 7.66021 42.888C6.11581 42.888 4.57141 42.9035 3.027 42.888C1.28183 42.8726 0.0154209 41.6679 -2.31471e-05 40.0463C-0.0154672 38.3938 1.25094 37.1583 3.04245 37.1429C4.83395 37.1274 6.6409 37.1429 8.47874 37.1429C8.47874 34.2703 8.47874 31.4903 8.47874 28.6023C7.35133 28.6023 6.28569 28.6023 5.20461 28.6023C4.55596 28.6023 3.92276 28.6023 3.27411 28.6023C1.28183 28.6023 -0.0154672 27.4595 -0.0154672 25.7143C0.0308649 23.9846 1.32816 22.8571 3.35133 22.8571C4.78762 22.8571 6.23936 22.8571 7.67565 22.8571C7.92276 22.8571 8.1853 22.8571 8.49419 22.8571C8.49419 20 8.49419 17.2201 8.49419 14.3166C7.95364 14.3166 7.42855 14.3166 6.88801 14.3166C5.57527 14.3166 4.26253 14.332 2.94978 14.3166C1.26639 14.2857 0.0308649 13.0502 0.0154209 11.4595C0.0154209 9.86872 1.25094 8.61776 2.9189 8.57143C4.49418 8.54054 6.05403 8.55598 7.62932 8.55598C7.90731 8.55598 8.18531 8.55598 8.55596 8.55598C8.55596 7.10424 8.55596 5.74517 8.55596 4.40154C8.55596 3.93822 8.54052 3.4749 8.55596 3.01158C8.58685 1.63706 9.26639 0.633202 10.4556 0.185325C11.6139 -0.247107 12.7876 0.0772173 13.7143 1.12741C16.9112 4.75675 20.0926 8.40154 23.2741 12.0463C26.6255 15.8764 29.9768 19.722 33.3436 23.5521C33.9923 24.2934 34.3011 25.0965 34.3011 26.0849C34.2857 29.4826 34.3166 32.8803 34.2857 36.278C34.2857 36.9575 34.471 37.1583 35.1506 37.1429C38.3938 37.112 41.637 37.112 44.8803 37.1429C45.5753 37.1583 45.7452 36.9266 45.7297 36.2625C45.6988 32.9421 45.7297 29.6216 45.6988 26.3012C45.6834 25.1892 46.0231 24.278 46.7645 23.4286C53.2509 16.0463 59.722 8.6332 66.193 1.23552C67.2123 0.0772173 68.3552 -0.277995 69.5598 0.185325C70.7799 0.648646 71.444 1.68339 71.444 3.16602C71.4594 4.91119 71.444 6.65637 71.444 8.50965C71.7529 8.52509 72.0309 8.55598 72.2934 8.55598C73.7915 8.55598 75.2741 8.55598 76.7722 8.55598C78.7027 8.57143 79.9845 9.74517 79.9691 11.4595C79.9536 13.1429 78.6718 14.3012 76.7876 14.3166C75.0424 14.3166 73.2973 14.3166 71.4903 14.3166C71.4903 17.1737 71.4903 19.9537 71.4903 22.8571C72.5868 22.8571 73.6525 22.8571 74.7336 22.8571C75.5058 22.8571 76.278 22.8417 77.0502 22.8571C78.7336 22.9035 79.9691 24.1236 79.9691 25.7143C79.9691 27.3205 78.7336 28.556 77.0502 28.5869C75.2432 28.6178 73.4517 28.6178 71.6448 28.6178C71.6293 28.6178 71.5984 28.6332 71.5058 28.6795C71.5058 31.4286 71.5058 34.2085 71.5058 37.0811C71.7683 37.0965 72.0309 37.112 72.3089 37.112C73.8533 37.112 75.3977 37.0965 76.9421 37.112C78.7027 37.1274 79.9536 38.332 79.9691 39.9537C79.9845 41.6216 78.7181 42.8417 76.9266 42.8571C75.1351 42.8726 73.3282 42.8571 71.4903 42.8571C71.4903 45.7297 71.4903 48.5096 71.4903 51.3977C72.9421 51.3977 74.3475 51.3977 75.7683 51.3977C76.2007 51.3977 76.6486 51.3822 77.0811 51.3977C78.7336 51.444 79.9537 52.6486 79.9845 54.2085C80.0154 55.8147 78.7953 57.0811 77.1274 57.1274C75.5521 57.1737 73.9922 57.1429 72.417 57.1429C72.139 57.1429 71.861 57.1429 71.5212 57.1429C71.5212 60 71.5212 62.7799 71.5212 65.6834C72.7104 65.6834 73.8841 65.6834 75.0579 65.6834C75.722 65.6834 76.4015 65.6679 77.0656 65.6834C78.749 65.7297 79.9845 66.9498 80 68.5405C80 70.1467 78.7799 71.3822 77.0811 71.4131C75.2587 71.444 73.4208 71.4286 71.5058 71.4286C71.4903 71.7374 71.4594 72 71.4594 72.278C71.4594 73.7915 71.4594 75.3205 71.4594 76.834C71.444 78.3166 70.7799 79.3513 69.5598 79.7992C68.3706 80.2471 67.2278 79.8919 66.2548 78.7954C59.7065 71.3205 53.1737 63.8456 46.6255 56.3707C45.9923 55.6448 45.7297 54.8417 45.7297 53.8996C45.7452 50.5019 45.7143 47.1042 45.7452 43.7066C45.7452 43.027 45.5444 42.8417 44.8803 42.8417C41.637 42.8726 38.3938 42.8726 35.1506 42.8417C34.4401 42.8263 34.3011 43.0734 34.3011 43.722C34.332 47.0425 34.3011 50.3629 34.332 53.6834C34.3475 54.7954 34.0077 55.7066 33.2664 56.556C26.7799 63.9382 20.3089 71.3513 13.8378 78.749C12.834 79.8919 11.6911 80.2471 10.471 79.7838C9.25094 79.3205 8.58685 78.2857 8.58685 76.8031C8.55596 75.0888 8.55596 73.3436 8.55596 71.4595Z" fill="white"/>
</g>
<defs>
<clipPath id="clip0_31_328">
<rect width="80" height="80.0154" fill="white"/>
</clipPath>
</defs>
</svg>
