<svg width="44" height="30" viewBox="0 0 44 30" fill="none" xmlns="http://www.w3.org/2000/svg">
<path d="M14.5298 3.20364L8.13573 6.41959L4.67798 6.48334C1.42379 6.54709 1.20792 6.55939 0.864567 6.81394C0.673765 6.9665 0.394155 7.27161 0.25435 7.51297C0.0129892 7.93238 0.000239693 8.17374 0.000239693 15C0.000239693 22.8431 -0.0380087 22.5253 0.851818 23.161C1.25848 23.4406 1.36048 23.4534 4.70348 23.5171L8.13573 23.5808L14.5298 26.7968C20.2372 29.6571 20.9872 30 21.5337 30C22.2077 30 22.7919 29.6821 23.2496 29.0719L23.5165 28.7158V15V1.28418L23.2496 0.928074C22.7919 0.317856 22.2072 0 21.5337 0C20.9872 0.00043869 20.2372 0.343798 14.5298 3.20364ZM19.5127 15C19.5127 20.3135 19.4872 24.6606 19.4489 24.6606C19.4234 24.6606 17.0463 23.4912 14.1737 22.0549L8.9495 19.4491H6.48358H4.0049V15.0127V10.5636L6.58513 10.5254L9.15306 10.4871L14.2375 7.91919C17.034 6.5084 19.3601 5.35127 19.4239 5.35127C19.4744 5.3394 19.5127 9.68654 19.5127 15Z" fill="white"/>
<path d="M33.4954 6.76294C32.5674 7.39865 32.5419 7.48746 32.504 10.3605L32.4658 12.9535L29.8728 12.9917C27.4829 13.03 27.2543 13.0555 26.9237 13.2968C25.6527 14.2504 25.6778 15.852 26.9998 16.7418C27.4064 17.0214 27.5467 17.0342 29.9489 17.0342H32.4785V19.4491C32.4785 22.0931 32.5423 22.4237 33.1903 23.0339C34.1566 23.9238 35.6945 23.6569 36.3047 22.5002C36.521 22.119 36.5465 21.7502 36.5465 19.5511V17.0469L39.1905 17.0087C41.7074 16.9704 41.8345 16.9577 42.2411 16.6781C43.4743 15.7883 43.3345 13.8943 41.9615 13.2331C41.4784 12.9917 41.186 12.9662 38.9869 12.9662H36.5465V10.4493C36.5465 8.09768 36.521 7.91963 36.2542 7.44921C35.72 6.50883 34.3598 6.17822 33.4954 6.76294Z" fill="white"/>
</svg>
