<svg width="31" height="30" viewBox="0 0 31 30" fill="none" xmlns="http://www.w3.org/2000/svg">
<path d="M29.5533 11.9107C29.4044 11.6873 29.1067 11.464 28.8089 11.3896L25.9801 10.4218L27.3201 7.74195C27.469 7.44418 27.469 7.14641 27.469 6.84864C27.3945 6.55087 27.2456 6.2531 27.0223 6.02978L23.8213 2.8288C23.598 2.60547 23.3002 2.45658 23.0025 2.38214C22.7047 2.3077 22.4069 2.38215 22.1092 2.53103L19.4293 3.87098L18.4615 1.0422C18.3871 0.744435 18.1638 0.52111 17.9404 0.297785C17.7171 0.148901 17.4193 0 17.0471 0H12.5806C12.2829 0 11.9851 0.0744598 11.6873 0.297785C11.464 0.446668 11.2407 0.744435 11.1662 1.0422L10.1985 3.87098L7.51861 2.53103C7.22084 2.38215 6.92307 2.38214 6.6253 2.38214C6.32754 2.38214 6.02976 2.60547 5.80644 2.8288L2.60546 6.02978C2.38213 6.2531 2.23325 6.55087 2.1588 6.84864C2.08436 7.14641 2.15881 7.44418 2.3077 7.74195L3.64764 10.4218L1.04218 11.3151C0.744412 11.3896 0.521087 11.6129 0.297762 11.8362C0.148879 12.0596 0 12.3573 0 12.7295V17.196C0 17.4938 0.0744371 17.7916 0.297762 18.0893C0.446645 18.3127 0.744412 18.536 1.04218 18.6104L3.87095 19.5782L2.53101 22.2581C2.38213 22.5558 2.38212 22.8536 2.38212 23.1514C2.45656 23.4491 2.60545 23.7469 2.82877 23.9702L6.02978 27.1712C6.2531 27.3945 6.55085 27.5434 6.84862 27.6179C7.14639 27.6923 7.44416 27.6179 7.74193 27.469L10.4218 26.129L11.3896 28.9578C11.464 29.2556 11.6873 29.4789 11.9107 29.7022C12.134 29.8511 12.5062 30 12.804 30H17.2704C17.5682 30 17.866 29.9256 18.1638 29.7022C18.3871 29.5534 18.6104 29.2556 18.6849 28.9578L19.6526 26.129L22.3325 27.469C22.6303 27.6179 22.928 27.6179 23.2258 27.6179C23.5235 27.5434 23.8213 27.3945 24.0446 27.2456L27.2456 24.0447C27.469 23.8213 27.6178 23.5236 27.6923 23.2258C27.7667 22.928 27.6923 22.6303 27.5434 22.3325L26.2034 19.6526L29.0322 18.6849C29.33 18.6104 29.5533 18.3871 29.7767 18.1638C29.9255 17.9405 30.0744 17.6427 30.0744 17.2705V12.804C29.7767 12.4318 29.7022 12.134 29.5533 11.9107ZM19.8759 18.3127C19.2059 19.2804 18.3127 20.0248 17.196 20.4715C16.0794 20.9181 14.8883 21.067 13.7717 20.8437C12.5806 20.6203 11.5385 20.0248 10.7196 19.206C9.90074 18.3871 9.30519 17.3449 9.08187 16.1538C8.85854 14.9628 8.93298 13.7717 9.45408 12.7295C9.90073 11.6129 10.6452 10.7196 11.6129 10.0496C12.5806 9.37965 13.7717 9.08189 14.8883 9.08189C16.4516 9.08189 18.0149 9.67741 19.1315 10.794C20.2481 11.9107 20.8437 13.3995 20.8437 15.0372C20.8437 16.1538 20.5459 17.3449 19.8759 18.3127Z" fill="white"/>
<path d="M17.866 14.9628C17.866 14.8139 17.866 14.5906 17.7915 14.4417C17.7915 14.3672 17.7915 14.3672 17.7915 14.2928C17.7915 14.1439 17.7171 14.0695 17.7171 13.9206C17.7171 13.8461 17.6427 13.8461 17.6427 13.7717C17.5682 13.6228 17.4938 13.4739 17.4193 13.3251C17.4193 13.3251 17.4193 13.325 17.3449 13.2506C17.2705 13.1017 17.196 13.0273 17.0471 12.8784C16.9727 12.804 16.9727 12.8039 16.8982 12.7295C16.8238 12.6551 16.7494 12.5806 16.6005 12.5062C16.526 12.5062 16.526 12.4317 16.4516 12.4317C16.3027 12.3573 16.2283 12.2829 16.0794 12.2084C16.0794 12.2084 16.005 12.2084 16.005 12.134C15.8561 12.0595 15.7072 11.9851 15.4839 11.9851C15.4094 11.9851 15.4094 11.9851 15.335 11.9851C15.1861 11.9851 15.0372 11.9851 14.9628 11.9106H14.8883C14.8883 11.9106 14.8883 11.9106 14.8139 11.9106C14.665 11.9106 14.4417 11.9106 14.2928 11.9851H14.2184C14.0695 11.9851 13.9206 12.0595 13.7717 12.134C13.6973 12.134 13.6973 12.2084 13.6228 12.2084C13.5484 12.2829 13.3995 12.2829 13.325 12.3573C13.2506 12.3573 13.2506 12.4317 13.1762 12.4317C13.0273 12.5062 12.8784 12.6551 12.8039 12.7295C12.6551 12.8784 12.5806 12.9528 12.5062 13.1017C12.5062 13.1762 12.4317 13.1762 12.4317 13.2506C12.3573 13.325 12.2829 13.4739 12.2829 13.5484C12.2829 13.6228 12.2084 13.6228 12.2084 13.6973C12.134 13.8461 12.134 13.995 12.0595 14.1439V14.2183C12.0595 14.3672 11.9851 14.5906 11.9851 14.7394C11.9851 14.7394 11.9851 14.7394 11.9851 14.8139V14.8883C11.9851 15.0372 11.9851 15.1861 12.0595 15.2605C12.0595 15.335 12.0595 15.335 12.0595 15.4094C12.0595 15.5583 12.134 15.7072 12.2084 15.9305C12.2084 15.9305 12.2084 16.0049 12.2829 16.0049C12.3573 16.1538 12.4317 16.3027 12.5062 16.3771C12.5062 16.4516 12.5806 16.4516 12.5806 16.526C12.6551 16.6005 12.7295 16.7494 12.8039 16.8238C12.8039 16.8982 12.8784 16.8982 12.8784 16.9727C13.0273 17.0471 13.1017 17.196 13.2506 17.2705C13.3995 17.3449 13.5484 17.4193 13.6973 17.4938C13.7717 17.4938 13.7717 17.5682 13.8461 17.5682C13.995 17.6427 14.0695 17.6427 14.2184 17.7171C14.2928 17.7171 14.2928 17.7171 14.3672 17.7171C14.5161 17.7171 14.7394 17.7916 14.8883 17.7916C15.1117 17.7916 15.2605 17.7915 15.4839 17.7171C15.6327 17.7171 15.7072 17.6427 15.8561 17.6427C15.9305 17.6427 16.005 17.6427 16.0794 17.5682C16.2283 17.4938 16.3027 17.4193 16.4516 17.3449C16.526 17.3449 16.526 17.2705 16.6005 17.2705C16.8982 17.0471 17.196 16.7494 17.4193 16.4516C17.4193 16.3771 17.4938 16.3772 17.4938 16.3027C17.5682 16.1538 17.6427 16.0794 17.7171 15.9305C17.7171 15.8561 17.7915 15.7816 17.7915 15.7072C17.866 15.5583 17.866 15.4838 17.866 15.335C17.866 15.4094 17.866 15.1861 17.866 14.9628Z" fill="white"/>
</svg>
