<svg width="47" height="30" viewBox="0 0 47 30" fill="none" xmlns="http://www.w3.org/2000/svg">
<path d="M14.5298 3.20364L8.13573 6.41959L4.67798 6.48334C1.42379 6.54709 1.20792 6.55939 0.864567 6.81394C0.673765 6.9665 0.394155 7.27161 0.25435 7.51297C0.0129892 7.93238 0.000239693 8.17374 0.000239693 15C0.000239693 22.8431 -0.0380087 22.5253 0.851818 23.161C1.25848 23.4406 1.36048 23.4534 4.70348 23.5171L8.13573 23.5808L14.5298 26.7968C20.2372 29.6571 20.9872 30 21.5337 30C22.2077 30 22.7919 29.6821 23.2496 29.0719L23.5165 28.7158V15V1.28418L23.2496 0.928073C22.7919 0.317856 22.2072 -5.8777e-07 21.5337 -5.8777e-07C20.9872 0.00043905 20.2372 0.343797 14.5298 3.20364ZM19.5127 15C19.5127 20.3135 19.4872 24.6606 19.4489 24.6606C19.4234 24.6606 17.0463 23.4912 14.1737 22.0549L8.9495 19.4491H6.48358H4.0049V15.0127V10.5636L6.58513 10.5254L9.15306 10.4871L14.2375 7.91919C17.034 6.5084 19.3601 5.35127 19.4239 5.35127C19.4744 5.3394 19.5127 9.68654 19.5127 15Z" fill="white"/>
<path d="M27.9634 9.91723C27.7566 11.023 27.8014 11.1038 29.8062 13.1621L31.6127 15.0227L29.8062 16.8832C28.1433 18.6002 27.9997 18.7798 27.9366 19.1843C27.7122 20.7573 28.8624 21.8721 30.4264 21.5665C30.9117 21.4767 31.0198 21.3865 32.7184 19.6879L34.5072 17.8992L36.2148 19.6068C38.0844 21.4763 38.3632 21.665 39.2529 21.6383C40.5654 21.5842 41.4642 20.3081 41.0778 19.0587C40.9612 18.6362 40.7184 18.3574 39.1634 16.8024L37.3927 15.0317L39.2352 13.1351C40.9879 11.3283 41.0687 11.2294 41.1586 10.7441C41.4014 9.24295 39.9633 8.00258 38.5249 8.50588C38.0126 8.67686 37.7878 8.86555 36.2328 10.4205L34.5072 12.1462L32.7275 10.3664C31.0646 8.70359 30.9207 8.59572 30.3993 8.45179C29.3567 8.16454 28.1611 8.8926 27.9634 9.91723Z" fill="white"/>
</svg>
