<svg width="40" height="30" viewBox="0 0 40 30" fill="none" xmlns="http://www.w3.org/2000/svg">
<g clip-path="url(#clip0_76_531)">
<path d="M7.38686 17.0782C7.33912 17.0782 7.30449 17.0782 7.27079 17.0782C7.01803 17.0782 6.76528 17.0791 6.51253 17.0782C5.35548 17.0717 4.36881 16.3219 4.08985 15.2038C3.84833 14.239 4.09827 13.3948 4.83313 12.7236C5.98549 11.669 7.15377 10.6323 8.31643 9.58802C11.5442 6.68618 14.7729 3.78527 18.0015 0.883435C18.5164 0.420674 19.1155 0.127125 19.8017 0.0364423C20.852 -0.103788 21.791 0.169194 22.5838 0.876891C24.164 2.28668 25.7348 3.70581 27.3094 5.1212C29.2668 6.88063 31.2242 8.64006 33.1817 10.3985C34.0401 11.1698 34.8985 11.9402 35.756 12.7124C36.1773 13.0919 36.4469 13.5593 36.5498 14.1184C36.7867 15.4076 35.9872 16.6874 34.6888 17.0053C34.4848 17.0548 34.2779 17.0782 34.0682 17.0791C33.8154 17.0801 33.5627 17.0791 33.3099 17.0791C33.2818 17.0791 33.2538 17.0791 33.221 17.0791C33.2172 17.1034 33.2126 17.124 33.2116 17.1436C33.2098 17.1745 33.2107 17.2063 33.2107 17.2371C33.2107 20.3465 33.2107 23.4568 33.2107 26.5662C33.2107 28.2219 32.0611 29.6186 30.4342 29.9383C30.2226 29.9794 30.0082 30 29.7929 30C28.3167 30 26.8413 30.0019 25.3651 30C23.7512 29.9981 22.362 28.8744 22.0222 27.2991C21.9716 27.0636 21.9464 26.8252 21.9464 26.5849C21.9464 24.6095 21.9464 22.6341 21.9464 20.6578C21.9464 20.6176 21.9473 20.5765 21.9445 20.5363C21.9351 20.4082 21.8443 20.3185 21.7151 20.3091C21.687 20.3072 21.659 20.3082 21.6309 20.3082C20.7444 20.3082 19.8588 20.3119 18.9723 20.3054C18.7298 20.3035 18.6493 20.4381 18.6493 20.627C18.6531 22.6117 18.6531 24.5964 18.6512 26.5821C18.6503 27.4609 18.3526 28.2303 17.7619 28.88C17.2068 29.4905 16.514 29.8532 15.6949 29.9654C15.5377 29.9869 15.3785 29.9981 15.2194 29.999C13.7534 30.0019 12.2865 30.0009 10.8206 30C9.24694 29.999 7.89143 28.9501 7.49639 27.4291C7.42056 27.1383 7.39061 26.842 7.39061 26.541C7.39155 23.4344 7.39154 20.3278 7.39154 17.2212C7.38686 17.1773 7.38686 17.1343 7.38686 17.0782ZM10.5594 13.9024C10.5594 13.9623 10.5594 14.0053 10.5594 14.0483C10.5594 18.1991 10.5603 22.349 10.5575 26.4998C10.5575 26.699 10.6408 26.8298 10.8833 26.8289C12.3062 26.8233 13.7291 26.8261 15.152 26.8261C15.1829 26.8261 15.2147 26.827 15.2456 26.8242C15.3551 26.8158 15.4403 26.7466 15.4647 26.6391C15.474 26.5971 15.4749 26.5531 15.4749 26.5092C15.4749 24.5244 15.4759 22.5397 15.4749 20.555C15.4749 20.311 15.4993 20.0707 15.5508 19.8314C15.884 18.2683 17.2789 17.1371 18.8768 17.1352C19.8223 17.1343 20.7668 17.1334 21.7123 17.1371C21.8892 17.138 22.069 17.1483 22.2431 17.1792C23.2644 17.3559 24.0573 17.8831 24.6096 18.7591C24.9625 19.3191 25.1217 19.9361 25.1207 20.5971C25.1189 22.5603 25.1198 24.5235 25.1198 26.4867C25.1198 26.5176 25.1189 26.5494 25.1198 26.5802C25.1235 26.7214 25.22 26.8186 25.3613 26.8252C25.3866 26.8261 25.4109 26.8261 25.4362 26.8261C26.8619 26.8261 28.2876 26.8261 29.7143 26.8261C29.7452 26.8261 29.777 26.827 29.8079 26.8242C29.9296 26.8139 30.0213 26.7195 30.0279 26.598C30.0298 26.5606 30.0288 26.5232 30.0288 26.4858C30.0288 22.3443 30.0288 18.2038 30.0288 14.0623C30.0288 14.0315 30.0279 13.9997 30.0298 13.9688C30.0307 13.9483 30.0363 13.9286 30.041 13.9015C30.7992 13.9015 31.5528 13.9015 32.3139 13.9015C32.283 13.8688 32.2624 13.8426 32.2381 13.8211C31.315 12.9909 30.392 12.1617 29.469 11.3315C26.5633 8.71952 23.6576 6.10749 20.7519 3.4964C20.6545 3.40852 20.559 3.31971 20.4589 3.23463C20.3568 3.14863 20.2379 3.14956 20.135 3.2337C20.1181 3.24772 20.1022 3.26268 20.0863 3.2767C19.3346 3.95168 18.5838 4.62759 17.8321 5.30257C14.6708 8.14364 11.5105 10.9847 8.3492 13.8258C8.32673 13.8464 8.30333 13.865 8.28086 13.8847C8.28367 13.8903 8.28648 13.8968 8.28928 13.9024C9.04099 13.9024 9.79269 13.9024 10.5594 13.9024Z" fill="white"/>
</g>
<defs>
<clipPath id="clip0_76_531">
<rect width="32.5882" height="30" fill="white" transform="translate(4)"/>
</clipPath>
</defs>
</svg>
