<svg width="40" height="30" viewBox="0 0 40 30" fill="none" xmlns="http://www.w3.org/2000/svg">
<path d="M33.98 11.325L31.145 10.38L32.48 7.71001C32.6153 7.43101 32.6606 7.116 32.6096 6.81C32.5584 6.504 32.4137 6.22051 32.195 6.00001L29 2.80501C28.7783 2.58301 28.4927 2.43601 28.1832 2.38501C27.8739 2.33401 27.5562 2.3805 27.275 2.52L24.605 3.85502L23.66 1.02C23.5602 0.724505 23.3708 0.46802 23.118 0.28502C22.8653 0.10202 22.5618 0.0030168 22.25 1.67988e-05H17.75C17.4356 -0.0014832 17.1287 0.0975114 16.8731 0.280511C16.6173 0.463511 16.4256 0.721505 16.325 1.02L15.38 3.85502L12.71 2.52C12.4305 2.385 12.116 2.34001 11.8097 2.39101C11.5034 2.44201 11.2205 2.58601 11 2.80501L7.805 6.00001C7.58315 6.22201 7.4363 6.50702 7.38515 6.81602C7.334 7.12652 7.38125 7.4445 7.52 7.725L8.855 10.395L6.02 11.34C5.7245 11.4405 5.4674 11.6295 5.2847 11.8815C5.10185 12.135 5.00225 12.438 5 12.75V17.25C4.99925 17.565 5.0972 17.871 5.2802 18.1275C5.46335 18.3825 5.7221 18.5745 6.02 18.675L8.855 19.62L7.52 22.29C7.3847 22.569 7.3394 22.884 7.3904 23.19C7.44155 23.496 7.5863 23.7795 7.805 24L11 27.195C11.2217 27.417 11.5073 27.564 11.8167 27.615C12.126 27.666 12.4437 27.6195 12.725 27.48L15.395 26.145L16.34 28.98C16.4406 29.2785 16.6323 29.5365 16.8881 29.7195C17.1437 29.9025 17.4506 30.0015 17.765 30H22.265C22.5794 30.0015 22.8863 29.9025 23.1419 29.7195C23.3976 29.5365 23.5893 29.2785 23.69 28.98L24.635 26.145L27.305 27.48C27.5826 27.612 27.8942 27.6555 28.1973 27.6045C28.5005 27.5535 28.7807 27.411 29 27.195L32.195 24C32.4168 23.778 32.5637 23.493 32.6148 23.184C32.666 22.8735 32.6187 22.5555 32.48 22.275L31.145 19.605L33.98 18.66C34.2755 18.5595 34.5326 18.3705 34.7154 18.1185C34.8981 17.865 34.9977 17.562 35 17.25V12.75C35.0007 12.435 34.9028 12.129 34.7198 11.8725C34.5366 11.6175 34.2779 11.4255 33.98 11.325ZM32 16.17L30.2 16.77C29.7861 16.905 29.4063 17.127 29.0871 17.4225C28.7678 17.718 28.5167 18.0795 28.3512 18.483C28.1856 18.885 28.1096 19.3185 28.1285 19.7535C28.1472 20.1885 28.2603 20.613 28.46 21L29.315 22.71L27.665 24.36L26 23.46C25.6154 23.268 25.194 23.1615 24.7644 23.1465C24.335 23.133 23.9073 23.2095 23.5104 23.3745C23.1137 23.5395 22.7568 23.7885 22.4643 24.1035C22.1718 24.4185 21.9504 24.792 21.815 25.2L21.215 27H18.83L18.23 25.2C18.0957 24.786 17.873 24.4065 17.5773 24.087C17.2817 23.7675 16.92 23.517 16.5176 23.3505C16.1151 23.1855 15.6816 23.109 15.2468 23.1285C14.8121 23.1465 14.3867 23.2605 14 23.46L12.29 24.315L10.64 22.665L11.54 21C11.7396 20.613 11.8527 20.1885 11.8715 19.7535C11.8904 19.3185 11.8143 18.885 11.6487 18.483C11.4833 18.0795 11.2322 17.718 10.9128 17.4225C10.5936 17.127 10.2138 16.905 9.8 16.77L8 16.17V13.83L9.8 13.23C10.2138 13.095 10.5936 12.873 10.9128 12.5775C11.2322 12.282 11.4833 11.9205 11.6487 11.517C11.8143 11.115 11.8904 10.6815 11.8715 10.2465C11.8527 9.8115 11.7396 9.38701 11.54 9.00001L10.685 7.33501L12.335 5.685L14 6.54001C14.3867 6.73951 14.8121 6.8535 15.2468 6.8715C15.6816 6.891 16.1151 6.81451 16.5176 6.64951C16.92 6.48301 17.2817 6.23251 17.5773 5.91301C17.873 5.59351 18.0957 5.21401 18.23 4.80001L18.83 3.00001H21.17L21.77 4.80001C21.9042 5.21401 22.127 5.59351 22.4226 5.91301C22.7183 6.23251 23.0799 6.48301 23.4824 6.64951C23.8848 6.81451 24.3185 6.891 24.7532 6.8715C25.1879 6.8535 25.6133 6.73951 26 6.54001L27.71 5.685L29.36 7.33501L28.46 9.00001C28.2683 9.38401 28.1616 9.80551 28.1469 10.236C28.1322 10.665 28.2101 11.0925 28.3751 11.49C28.5401 11.886 28.7883 12.243 29.1032 12.5355C29.418 12.828 29.7921 13.05 30.2 13.185L32 13.785V16.17ZM20 9.00001C18.8133 9.00001 17.6532 9.3525 16.6665 10.011C15.6798 10.671 14.9108 11.607 14.4567 12.7035C14.0025 13.8 13.8837 15.006 14.1153 16.17C14.3468 17.334 14.9183 18.4035 15.7574 19.242C16.5965 20.082 17.6655 20.6535 18.8294 20.8845C19.9934 21.1155 21.1997 20.997 22.296 20.544C23.3924 20.0895 24.3296 19.32 24.9888 18.333C25.6481 17.346 26 16.1865 26 15C26 13.4085 25.3679 11.883 24.2426 10.758C23.1174 9.6315 21.5913 9.00001 20 9.00001ZM20 18C19.4066 18 18.8267 17.8245 18.3333 17.4945C17.84 17.1645 17.4554 16.6965 17.2283 16.1475C17.0013 15.6 16.9419 14.997 17.0576 14.415C17.1734 13.833 17.4591 13.2975 17.8787 12.879C18.2982 12.459 18.8328 12.174 19.4147 12.057C19.9967 11.9415 20.5998 12.0015 21.1481 12.228C21.6962 12.456 22.1648 12.84 22.4943 13.3335C22.824 13.827 23 14.406 23 15C23 15.795 22.6839 16.5585 22.1213 17.121C21.5586 17.6835 20.7956 18 20 18Z" fill="white"/>
</svg>
