<svg width="100" height="540" viewBox="0 0 100 540" fill="none" xmlns="http://www.w3.org/2000/svg">
<path d="M37.7109 24.8145V25.5557C37.7109 26.7445 37.5498 27.8115 37.2275 28.7568C36.9053 29.7021 36.4505 30.5078 35.8633 31.1738C35.276 31.8327 34.5742 32.3376 33.7578 32.6885C32.9486 33.0394 32.0498 33.2148 31.0615 33.2148C30.0804 33.2148 29.1816 33.0394 28.3652 32.6885C27.556 32.3376 26.8542 31.8327 26.2598 31.1738C25.6654 30.5078 25.2035 29.7021 24.874 28.7568C24.5518 27.8115 24.3906 26.7445 24.3906 25.5557V24.8145C24.3906 23.6185 24.5518 22.5514 24.874 21.6133C25.1963 20.668 25.651 19.8623 26.2383 19.1963C26.8327 18.5303 27.5345 18.0218 28.3438 17.6709C29.1602 17.32 30.0589 17.1445 31.04 17.1445C32.0283 17.1445 32.9271 17.32 33.7363 17.6709C34.5527 18.0218 35.2546 18.5303 35.8418 19.1963C36.4362 19.8623 36.8945 20.668 37.2168 21.6133C37.5462 22.5514 37.7109 23.6185 37.7109 24.8145ZM34.4561 25.5557V24.793C34.4561 23.9622 34.3809 23.2318 34.2305 22.6016C34.0801 21.9714 33.8581 21.4414 33.5645 21.0117C33.2708 20.582 32.9128 20.2598 32.4902 20.0449C32.0677 19.8229 31.5843 19.7119 31.04 19.7119C30.4958 19.7119 30.0124 19.8229 29.5898 20.0449C29.1745 20.2598 28.82 20.582 28.5264 21.0117C28.2399 21.4414 28.0215 21.9714 27.8711 22.6016C27.7207 23.2318 27.6455 23.9622 27.6455 24.793V25.5557C27.6455 26.3792 27.7207 27.1097 27.8711 27.7471C28.0215 28.3773 28.2435 28.9108 28.5371 29.3477C28.8307 29.7773 29.1888 30.1032 29.6113 30.3252C30.0339 30.5472 30.5173 30.6582 31.0615 30.6582C31.6058 30.6582 32.0892 30.5472 32.5117 30.3252C32.9342 30.1032 33.2887 29.7773 33.5752 29.3477C33.8617 28.9108 34.0801 28.3773 34.2305 27.7471C34.3809 27.1097 34.4561 26.3792 34.4561 25.5557ZM46.7129 30.2178V21.377H49.8066V33H46.8955L46.7129 30.2178ZM47.0566 27.833L47.9697 27.8115C47.9697 28.585 47.8802 29.3047 47.7012 29.9707C47.5221 30.6296 47.2536 31.2025 46.8955 31.6895C46.5374 32.1693 46.0863 32.5452 45.542 32.8174C44.9977 33.0824 44.3568 33.2148 43.6191 33.2148C43.0534 33.2148 42.5306 33.1361 42.0508 32.9785C41.5781 32.8138 41.1699 32.5596 40.8262 32.2158C40.4896 31.8649 40.2246 31.4173 40.0312 30.873C39.8451 30.3216 39.752 29.6592 39.752 28.8857V21.377H42.8457V28.9072C42.8457 29.251 42.8851 29.541 42.9639 29.7773C43.0498 30.0137 43.168 30.207 43.3184 30.3574C43.4688 30.5078 43.6442 30.6152 43.8447 30.6797C44.0524 30.7441 44.2816 30.7764 44.5322 30.7764C45.1696 30.7764 45.6709 30.6475 46.0361 30.3896C46.4085 30.1318 46.6699 29.7809 46.8203 29.3369C46.9779 28.8857 47.0566 28.3844 47.0566 27.833ZM57.8633 21.377V23.5684H51.0957V21.377H57.8633ZM52.7715 18.5088H55.8652V29.498C55.8652 29.8346 55.9082 30.0924 55.9941 30.2715C56.0872 30.4505 56.2233 30.5758 56.4023 30.6475C56.5814 30.7119 56.807 30.7441 57.0791 30.7441C57.2725 30.7441 57.4443 30.737 57.5947 30.7227C57.7523 30.7012 57.8848 30.6797 57.9922 30.6582L58.0029 32.9355C57.738 33.0215 57.4515 33.0895 57.1436 33.1396C56.8356 33.1898 56.4954 33.2148 56.123 33.2148C55.4427 33.2148 54.8483 33.1038 54.3398 32.8818C53.8385 32.6527 53.4518 32.2874 53.1797 31.7861C52.9076 31.2848 52.7715 30.626 52.7715 29.8096V18.5088ZM72.5156 17.3271V33H69.4219V20.8936L65.7051 22.0752V19.6367L72.1826 17.3271H72.5156Z" fill="white"/>
<path d="M37.7109 94.8145V95.5557C37.7109 96.7445 37.5498 97.8115 37.2275 98.7568C36.9053 99.7021 36.4505 100.508 35.8633 101.174C35.276 101.833 34.5742 102.338 33.7578 102.688C32.9486 103.039 32.0498 103.215 31.0615 103.215C30.0804 103.215 29.1816 103.039 28.3652 102.688C27.556 102.338 26.8542 101.833 26.2598 101.174C25.6654 100.508 25.2035 99.7021 24.874 98.7568C24.5518 97.8115 24.3906 96.7445 24.3906 95.5557V94.8145C24.3906 93.6185 24.5518 92.5514 24.874 91.6133C25.1963 90.668 25.651 89.8623 26.2383 89.1963C26.8327 88.5303 27.5345 88.0218 28.3438 87.6709C29.1602 87.32 30.0589 87.1445 31.04 87.1445C32.0283 87.1445 32.9271 87.32 33.7363 87.6709C34.5527 88.0218 35.2546 88.5303 35.8418 89.1963C36.4362 89.8623 36.8945 90.668 37.2168 91.6133C37.5462 92.5514 37.7109 93.6185 37.7109 94.8145ZM34.4561 95.5557V94.793C34.4561 93.9622 34.3809 93.2318 34.2305 92.6016C34.0801 91.9714 33.8581 91.4414 33.5645 91.0117C33.2708 90.582 32.9128 90.2598 32.4902 90.0449C32.0677 89.8229 31.5843 89.7119 31.04 89.7119C30.4958 89.7119 30.0124 89.8229 29.5898 90.0449C29.1745 90.2598 28.82 90.582 28.5264 91.0117C28.2399 91.4414 28.0215 91.9714 27.8711 92.6016C27.7207 93.2318 27.6455 93.9622 27.6455 94.793V95.5557C27.6455 96.3792 27.7207 97.1097 27.8711 97.7471C28.0215 98.3773 28.2435 98.9108 28.5371 99.3477C28.8307 99.7773 29.1888 100.103 29.6113 100.325C30.0339 100.547 30.5173 100.658 31.0615 100.658C31.6058 100.658 32.0892 100.547 32.5117 100.325C32.9342 100.103 33.2887 99.7773 33.5752 99.3477C33.8617 98.9108 34.0801 98.3773 34.2305 97.7471C34.3809 97.1097 34.4561 96.3792 34.4561 95.5557ZM46.7129 100.218V91.377H49.8066V103H46.8955L46.7129 100.218ZM47.0566 97.833L47.9697 97.8115C47.9697 98.585 47.8802 99.3047 47.7012 99.9707C47.5221 100.63 47.2536 101.202 46.8955 101.689C46.5374 102.169 46.0863 102.545 45.542 102.817C44.9977 103.082 44.3568 103.215 43.6191 103.215C43.0534 103.215 42.5306 103.136 42.0508 102.979C41.5781 102.814 41.1699 102.56 40.8262 102.216C40.4896 101.865 40.2246 101.417 40.0312 100.873C39.8451 100.322 39.752 99.6592 39.752 98.8857V91.377H42.8457V98.9072C42.8457 99.251 42.8851 99.541 42.9639 99.7773C43.0498 100.014 43.168 100.207 43.3184 100.357C43.4688 100.508 43.6442 100.615 43.8447 100.68C44.0524 100.744 44.2816 100.776 44.5322 100.776C45.1696 100.776 45.6709 100.647 46.0361 100.39C46.4085 100.132 46.6699 99.7809 46.8203 99.3369C46.9779 98.8857 47.0566 98.3844 47.0566 97.833ZM57.8633 91.377V93.5684H51.0957V91.377H57.8633ZM52.7715 88.5088H55.8652V99.498C55.8652 99.8346 55.9082 100.092 55.9941 100.271C56.0872 100.451 56.2233 100.576 56.4023 100.647C56.5814 100.712 56.807 100.744 57.0791 100.744C57.2725 100.744 57.4443 100.737 57.5947 100.723C57.7523 100.701 57.8848 100.68 57.9922 100.658L58.0029 102.936C57.738 103.021 57.4515 103.09 57.1436 103.14C56.8356 103.19 56.4954 103.215 56.123 103.215C55.4427 103.215 54.8483 103.104 54.3398 102.882C53.8385 102.653 53.4518 102.287 53.1797 101.786C52.9076 101.285 52.7715 100.626 52.7715 99.8096V88.5088ZM75.6738 100.583V103H64.9746V100.938L70.0342 95.5127C70.5426 94.9469 70.9437 94.4492 71.2373 94.0195C71.5309 93.5827 71.7422 93.1924 71.8711 92.8486C72.0072 92.4977 72.0752 92.1647 72.0752 91.8496C72.0752 91.377 71.9964 90.9723 71.8389 90.6357C71.6813 90.292 71.4486 90.027 71.1406 89.8408C70.8398 89.6546 70.4674 89.5615 70.0234 89.5615C69.5508 89.5615 69.1426 89.6761 68.7988 89.9053C68.4622 90.1344 68.2044 90.4531 68.0254 90.8613C67.8535 91.2695 67.7676 91.7314 67.7676 92.2471H64.6631C64.6631 91.3161 64.8851 90.4639 65.3291 89.6904C65.7731 88.9098 66.3997 88.2904 67.209 87.832C68.0182 87.3665 68.9779 87.1338 70.0879 87.1338C71.1836 87.1338 72.1074 87.3128 72.8594 87.6709C73.6185 88.0218 74.1914 88.5303 74.5781 89.1963C74.972 89.8551 75.1689 90.6429 75.1689 91.5596C75.1689 92.0752 75.0866 92.5801 74.9219 93.0742C74.7572 93.5612 74.5208 94.0482 74.2129 94.5352C73.9121 95.015 73.5469 95.502 73.1172 95.9961C72.6875 96.4902 72.2113 97.0023 71.6885 97.5322L68.9707 100.583H75.6738Z" fill="white"/>
<path d="M37.7109 164.814V165.556C37.7109 166.744 37.5498 167.812 37.2275 168.757C36.9053 169.702 36.4505 170.508 35.8633 171.174C35.276 171.833 34.5742 172.338 33.7578 172.688C32.9486 173.039 32.0498 173.215 31.0615 173.215C30.0804 173.215 29.1816 173.039 28.3652 172.688C27.556 172.338 26.8542 171.833 26.2598 171.174C25.6654 170.508 25.2035 169.702 24.874 168.757C24.5518 167.812 24.3906 166.744 24.3906 165.556V164.814C24.3906 163.618 24.5518 162.551 24.874 161.613C25.1963 160.668 25.651 159.862 26.2383 159.196C26.8327 158.53 27.5345 158.022 28.3438 157.671C29.1602 157.32 30.0589 157.145 31.04 157.145C32.0283 157.145 32.9271 157.32 33.7363 157.671C34.5527 158.022 35.2546 158.53 35.8418 159.196C36.4362 159.862 36.8945 160.668 37.2168 161.613C37.5462 162.551 37.7109 163.618 37.7109 164.814ZM34.4561 165.556V164.793C34.4561 163.962 34.3809 163.232 34.2305 162.602C34.0801 161.971 33.8581 161.441 33.5645 161.012C33.2708 160.582 32.9128 160.26 32.4902 160.045C32.0677 159.823 31.5843 159.712 31.04 159.712C30.4958 159.712 30.0124 159.823 29.5898 160.045C29.1745 160.26 28.82 160.582 28.5264 161.012C28.2399 161.441 28.0215 161.971 27.8711 162.602C27.7207 163.232 27.6455 163.962 27.6455 164.793V165.556C27.6455 166.379 27.7207 167.11 27.8711 167.747C28.0215 168.377 28.2435 168.911 28.5371 169.348C28.8307 169.777 29.1888 170.103 29.6113 170.325C30.0339 170.547 30.5173 170.658 31.0615 170.658C31.6058 170.658 32.0892 170.547 32.5117 170.325C32.9342 170.103 33.2887 169.777 33.5752 169.348C33.8617 168.911 34.0801 168.377 34.2305 167.747C34.3809 167.11 34.4561 166.379 34.4561 165.556ZM46.7129 170.218V161.377H49.8066V173H46.8955L46.7129 170.218ZM47.0566 167.833L47.9697 167.812C47.9697 168.585 47.8802 169.305 47.7012 169.971C47.5221 170.63 47.2536 171.202 46.8955 171.689C46.5374 172.169 46.0863 172.545 45.542 172.817C44.9977 173.082 44.3568 173.215 43.6191 173.215C43.0534 173.215 42.5306 173.136 42.0508 172.979C41.5781 172.814 41.1699 172.56 40.8262 172.216C40.4896 171.865 40.2246 171.417 40.0312 170.873C39.8451 170.322 39.752 169.659 39.752 168.886V161.377H42.8457V168.907C42.8457 169.251 42.8851 169.541 42.9639 169.777C43.0498 170.014 43.168 170.207 43.3184 170.357C43.4688 170.508 43.6442 170.615 43.8447 170.68C44.0524 170.744 44.2816 170.776 44.5322 170.776C45.1696 170.776 45.6709 170.647 46.0361 170.39C46.4085 170.132 46.6699 169.781 46.8203 169.337C46.9779 168.886 47.0566 168.384 47.0566 167.833ZM57.8633 161.377V163.568H51.0957V161.377H57.8633ZM52.7715 158.509H55.8652V169.498C55.8652 169.835 55.9082 170.092 55.9941 170.271C56.0872 170.451 56.2233 170.576 56.4023 170.647C56.5814 170.712 56.807 170.744 57.0791 170.744C57.2725 170.744 57.4443 170.737 57.5947 170.723C57.7523 170.701 57.8848 170.68 57.9922 170.658L58.0029 172.936C57.738 173.021 57.4515 173.09 57.1436 173.14C56.8356 173.19 56.4954 173.215 56.123 173.215C55.4427 173.215 54.8483 173.104 54.3398 172.882C53.8385 172.653 53.4518 172.287 53.1797 171.786C52.9076 171.285 52.7715 170.626 52.7715 169.81V158.509ZM68.1436 163.837H69.7979C70.3278 163.837 70.7646 163.747 71.1084 163.568C71.4521 163.382 71.7064 163.124 71.8711 162.795C72.043 162.458 72.1289 162.068 72.1289 161.624C72.1289 161.223 72.0501 160.868 71.8926 160.561C71.7422 160.245 71.5094 160.002 71.1943 159.83C70.8792 159.651 70.4818 159.562 70.002 159.562C69.6224 159.562 69.2715 159.637 68.9492 159.787C68.627 159.938 68.3691 160.149 68.1758 160.421C67.9824 160.693 67.8857 161.022 67.8857 161.409H64.7812C64.7812 160.55 65.0104 159.801 65.4688 159.164C65.9342 158.527 66.5573 158.029 67.3379 157.671C68.1185 157.313 68.9779 157.134 69.916 157.134C70.9759 157.134 71.9033 157.306 72.6982 157.649C73.4932 157.986 74.1126 158.484 74.5566 159.143C75.0007 159.801 75.2227 160.618 75.2227 161.592C75.2227 162.086 75.1081 162.566 74.8789 163.031C74.6497 163.49 74.3203 163.905 73.8906 164.277C73.4681 164.643 72.9525 164.936 72.3438 165.158C71.735 165.373 71.0511 165.48 70.292 165.48H68.1436V163.837ZM68.1436 166.189V164.589H70.292C71.1442 164.589 71.8926 164.686 72.5371 164.879C73.1816 165.072 73.7223 165.352 74.1592 165.717C74.596 166.075 74.9255 166.501 75.1475 166.995C75.3695 167.482 75.4805 168.023 75.4805 168.617C75.4805 169.348 75.3408 169.999 75.0615 170.572C74.7822 171.138 74.3883 171.618 73.8799 172.012C73.3786 172.406 72.7913 172.706 72.1182 172.914C71.445 173.115 70.7109 173.215 69.916 173.215C69.2572 173.215 68.609 173.125 67.9717 172.946C67.3415 172.76 66.7686 172.484 66.2529 172.119C65.7445 171.747 65.3363 171.281 65.0283 170.723C64.7275 170.157 64.5771 169.487 64.5771 168.714H67.6816C67.6816 169.115 67.7819 169.473 67.9824 169.788C68.1829 170.103 68.4587 170.35 68.8096 170.529C69.1676 170.708 69.5651 170.798 70.002 170.798C70.4961 170.798 70.9186 170.708 71.2695 170.529C71.6276 170.343 71.8997 170.085 72.0859 169.756C72.2793 169.419 72.376 169.029 72.376 168.585C72.376 168.012 72.2721 167.554 72.0645 167.21C71.8568 166.859 71.5596 166.601 71.1729 166.437C70.7861 166.272 70.3278 166.189 69.7979 166.189H68.1436Z" fill="white"/>
<path d="M37.7109 234.814V235.556C37.7109 236.744 37.5498 237.812 37.2275 238.757C36.9053 239.702 36.4505 240.508 35.8633 241.174C35.276 241.833 34.5742 242.338 33.7578 242.688C32.9486 243.039 32.0498 243.215 31.0615 243.215C30.0804 243.215 29.1816 243.039 28.3652 242.688C27.556 242.338 26.8542 241.833 26.2598 241.174C25.6654 240.508 25.2035 239.702 24.874 238.757C24.5518 237.812 24.3906 236.744 24.3906 235.556V234.814C24.3906 233.618 24.5518 232.551 24.874 231.613C25.1963 230.668 25.651 229.862 26.2383 229.196C26.8327 228.53 27.5345 228.022 28.3438 227.671C29.1602 227.32 30.0589 227.145 31.04 227.145C32.0283 227.145 32.9271 227.32 33.7363 227.671C34.5527 228.022 35.2546 228.53 35.8418 229.196C36.4362 229.862 36.8945 230.668 37.2168 231.613C37.5462 232.551 37.7109 233.618 37.7109 234.814ZM34.4561 235.556V234.793C34.4561 233.962 34.3809 233.232 34.2305 232.602C34.0801 231.971 33.8581 231.441 33.5645 231.012C33.2708 230.582 32.9128 230.26 32.4902 230.045C32.0677 229.823 31.5843 229.712 31.04 229.712C30.4958 229.712 30.0124 229.823 29.5898 230.045C29.1745 230.26 28.82 230.582 28.5264 231.012C28.2399 231.441 28.0215 231.971 27.8711 232.602C27.7207 233.232 27.6455 233.962 27.6455 234.793V235.556C27.6455 236.379 27.7207 237.11 27.8711 237.747C28.0215 238.377 28.2435 238.911 28.5371 239.348C28.8307 239.777 29.1888 240.103 29.6113 240.325C30.0339 240.547 30.5173 240.658 31.0615 240.658C31.6058 240.658 32.0892 240.547 32.5117 240.325C32.9342 240.103 33.2887 239.777 33.5752 239.348C33.8617 238.911 34.0801 238.377 34.2305 237.747C34.3809 237.11 34.4561 236.379 34.4561 235.556ZM46.7129 240.218V231.377H49.8066V243H46.8955L46.7129 240.218ZM47.0566 237.833L47.9697 237.812C47.9697 238.585 47.8802 239.305 47.7012 239.971C47.5221 240.63 47.2536 241.202 46.8955 241.689C46.5374 242.169 46.0863 242.545 45.542 242.817C44.9977 243.082 44.3568 243.215 43.6191 243.215C43.0534 243.215 42.5306 243.136 42.0508 242.979C41.5781 242.814 41.1699 242.56 40.8262 242.216C40.4896 241.865 40.2246 241.417 40.0312 240.873C39.8451 240.322 39.752 239.659 39.752 238.886V231.377H42.8457V238.907C42.8457 239.251 42.8851 239.541 42.9639 239.777C43.0498 240.014 43.168 240.207 43.3184 240.357C43.4688 240.508 43.6442 240.615 43.8447 240.68C44.0524 240.744 44.2816 240.776 44.5322 240.776C45.1696 240.776 45.6709 240.647 46.0361 240.39C46.4085 240.132 46.6699 239.781 46.8203 239.337C46.9779 238.886 47.0566 238.384 47.0566 237.833ZM57.8633 231.377V233.568H51.0957V231.377H57.8633ZM52.7715 228.509H55.8652V239.498C55.8652 239.835 55.9082 240.092 55.9941 240.271C56.0872 240.451 56.2233 240.576 56.4023 240.647C56.5814 240.712 56.807 240.744 57.0791 240.744C57.2725 240.744 57.4443 240.737 57.5947 240.723C57.7523 240.701 57.8848 240.68 57.9922 240.658L58.0029 242.936C57.738 243.021 57.4515 243.09 57.1436 243.14C56.8356 243.19 56.4954 243.215 56.123 243.215C55.4427 243.215 54.8483 243.104 54.3398 242.882C53.8385 242.653 53.4518 242.287 53.1797 241.786C52.9076 241.285 52.7715 240.626 52.7715 239.81V228.509ZM75.9316 237.156V239.584H64.6631L64.5127 237.704L71.0332 227.359H73.4932L70.8291 231.817L67.585 237.156H75.9316ZM74.1592 227.359V243H71.0654V227.359H74.1592Z" fill="white"/>
<path d="M37.7109 304.814V305.556C37.7109 306.744 37.5498 307.812 37.2275 308.757C36.9053 309.702 36.4505 310.508 35.8633 311.174C35.276 311.833 34.5742 312.338 33.7578 312.688C32.9486 313.039 32.0498 313.215 31.0615 313.215C30.0804 313.215 29.1816 313.039 28.3652 312.688C27.556 312.338 26.8542 311.833 26.2598 311.174C25.6654 310.508 25.2035 309.702 24.874 308.757C24.5518 307.812 24.3906 306.744 24.3906 305.556V304.814C24.3906 303.618 24.5518 302.551 24.874 301.613C25.1963 300.668 25.651 299.862 26.2383 299.196C26.8327 298.53 27.5345 298.022 28.3438 297.671C29.1602 297.32 30.0589 297.145 31.04 297.145C32.0283 297.145 32.9271 297.32 33.7363 297.671C34.5527 298.022 35.2546 298.53 35.8418 299.196C36.4362 299.862 36.8945 300.668 37.2168 301.613C37.5462 302.551 37.7109 303.618 37.7109 304.814ZM34.4561 305.556V304.793C34.4561 303.962 34.3809 303.232 34.2305 302.602C34.0801 301.971 33.8581 301.441 33.5645 301.012C33.2708 300.582 32.9128 300.26 32.4902 300.045C32.0677 299.823 31.5843 299.712 31.04 299.712C30.4958 299.712 30.0124 299.823 29.5898 300.045C29.1745 300.26 28.82 300.582 28.5264 301.012C28.2399 301.441 28.0215 301.971 27.8711 302.602C27.7207 303.232 27.6455 303.962 27.6455 304.793V305.556C27.6455 306.379 27.7207 307.11 27.8711 307.747C28.0215 308.377 28.2435 308.911 28.5371 309.348C28.8307 309.777 29.1888 310.103 29.6113 310.325C30.0339 310.547 30.5173 310.658 31.0615 310.658C31.6058 310.658 32.0892 310.547 32.5117 310.325C32.9342 310.103 33.2887 309.777 33.5752 309.348C33.8617 308.911 34.0801 308.377 34.2305 307.747C34.3809 307.11 34.4561 306.379 34.4561 305.556ZM46.7129 310.218V301.377H49.8066V313H46.8955L46.7129 310.218ZM47.0566 307.833L47.9697 307.812C47.9697 308.585 47.8802 309.305 47.7012 309.971C47.5221 310.63 47.2536 311.202 46.8955 311.689C46.5374 312.169 46.0863 312.545 45.542 312.817C44.9977 313.082 44.3568 313.215 43.6191 313.215C43.0534 313.215 42.5306 313.136 42.0508 312.979C41.5781 312.814 41.1699 312.56 40.8262 312.216C40.4896 311.865 40.2246 311.417 40.0312 310.873C39.8451 310.322 39.752 309.659 39.752 308.886V301.377H42.8457V308.907C42.8457 309.251 42.8851 309.541 42.9639 309.777C43.0498 310.014 43.168 310.207 43.3184 310.357C43.4688 310.508 43.6442 310.615 43.8447 310.68C44.0524 310.744 44.2816 310.776 44.5322 310.776C45.1696 310.776 45.6709 310.647 46.0361 310.39C46.4085 310.132 46.6699 309.781 46.8203 309.337C46.9779 308.886 47.0566 308.384 47.0566 307.833ZM57.8633 301.377V303.568H51.0957V301.377H57.8633ZM52.7715 298.509H55.8652V309.498C55.8652 309.835 55.9082 310.092 55.9941 310.271C56.0872 310.451 56.2233 310.576 56.4023 310.647C56.5814 310.712 56.807 310.744 57.0791 310.744C57.2725 310.744 57.4443 310.737 57.5947 310.723C57.7523 310.701 57.8848 310.68 57.9922 310.658L58.0029 312.936C57.738 313.021 57.4515 313.09 57.1436 313.14C56.8356 313.19 56.4954 313.215 56.123 313.215C55.4427 313.215 54.8483 313.104 54.3398 312.882C53.8385 312.653 53.4518 312.287 53.1797 311.786C52.9076 311.285 52.7715 310.626 52.7715 309.81V298.509ZM67.8857 305.878L65.415 305.287L66.3066 297.359H75.0938V299.862H68.8525L68.4658 303.332C68.6735 303.21 68.9886 303.081 69.4111 302.945C69.8337 302.802 70.3063 302.73 70.8291 302.73C71.5882 302.73 72.2614 302.849 72.8486 303.085C73.4359 303.321 73.9336 303.665 74.3418 304.116C74.7572 304.567 75.0723 305.119 75.2871 305.771C75.502 306.422 75.6094 307.16 75.6094 307.983C75.6094 308.678 75.502 309.34 75.2871 309.971C75.0723 310.594 74.7464 311.152 74.3096 311.646C73.8727 312.133 73.3249 312.517 72.666 312.796C72.0072 313.075 71.2266 313.215 70.3242 313.215C69.651 313.215 68.9993 313.115 68.3691 312.914C67.7461 312.714 67.1839 312.416 66.6826 312.022C66.1885 311.629 65.791 311.152 65.4902 310.594C65.1966 310.028 65.0426 309.383 65.0283 308.66H68.1006C68.1436 309.104 68.2581 309.487 68.4443 309.81C68.6377 310.125 68.8919 310.368 69.207 310.54C69.5221 310.712 69.891 310.798 70.3135 310.798C70.7074 310.798 71.0439 310.723 71.3232 310.572C71.6025 310.422 71.8281 310.214 72 309.949C72.1719 309.677 72.2972 309.362 72.376 309.004C72.4619 308.639 72.5049 308.245 72.5049 307.822C72.5049 307.4 72.4548 307.017 72.3545 306.673C72.2542 306.329 72.1003 306.032 71.8926 305.781C71.6849 305.531 71.4199 305.337 71.0977 305.201C70.7826 305.065 70.4137 304.997 69.9912 304.997C69.4183 304.997 68.9743 305.087 68.6592 305.266C68.3512 305.445 68.0934 305.649 67.8857 305.878Z" fill="white"/>
<path d="M37.7109 374.814V375.556C37.7109 376.744 37.5498 377.812 37.2275 378.757C36.9053 379.702 36.4505 380.508 35.8633 381.174C35.276 381.833 34.5742 382.338 33.7578 382.688C32.9486 383.039 32.0498 383.215 31.0615 383.215C30.0804 383.215 29.1816 383.039 28.3652 382.688C27.556 382.338 26.8542 381.833 26.2598 381.174C25.6654 380.508 25.2035 379.702 24.874 378.757C24.5518 377.812 24.3906 376.744 24.3906 375.556V374.814C24.3906 373.618 24.5518 372.551 24.874 371.613C25.1963 370.668 25.651 369.862 26.2383 369.196C26.8327 368.53 27.5345 368.022 28.3438 367.671C29.1602 367.32 30.0589 367.145 31.04 367.145C32.0283 367.145 32.9271 367.32 33.7363 367.671C34.5527 368.022 35.2546 368.53 35.8418 369.196C36.4362 369.862 36.8945 370.668 37.2168 371.613C37.5462 372.551 37.7109 373.618 37.7109 374.814ZM34.4561 375.556V374.793C34.4561 373.962 34.3809 373.232 34.2305 372.602C34.0801 371.971 33.8581 371.441 33.5645 371.012C33.2708 370.582 32.9128 370.26 32.4902 370.045C32.0677 369.823 31.5843 369.712 31.04 369.712C30.4958 369.712 30.0124 369.823 29.5898 370.045C29.1745 370.26 28.82 370.582 28.5264 371.012C28.2399 371.441 28.0215 371.971 27.8711 372.602C27.7207 373.232 27.6455 373.962 27.6455 374.793V375.556C27.6455 376.379 27.7207 377.11 27.8711 377.747C28.0215 378.377 28.2435 378.911 28.5371 379.348C28.8307 379.777 29.1888 380.103 29.6113 380.325C30.0339 380.547 30.5173 380.658 31.0615 380.658C31.6058 380.658 32.0892 380.547 32.5117 380.325C32.9342 380.103 33.2887 379.777 33.5752 379.348C33.8617 378.911 34.0801 378.377 34.2305 377.747C34.3809 377.11 34.4561 376.379 34.4561 375.556ZM46.7129 380.218V371.377H49.8066V383H46.8955L46.7129 380.218ZM47.0566 377.833L47.9697 377.812C47.9697 378.585 47.8802 379.305 47.7012 379.971C47.5221 380.63 47.2536 381.202 46.8955 381.689C46.5374 382.169 46.0863 382.545 45.542 382.817C44.9977 383.082 44.3568 383.215 43.6191 383.215C43.0534 383.215 42.5306 383.136 42.0508 382.979C41.5781 382.814 41.1699 382.56 40.8262 382.216C40.4896 381.865 40.2246 381.417 40.0312 380.873C39.8451 380.322 39.752 379.659 39.752 378.886V371.377H42.8457V378.907C42.8457 379.251 42.8851 379.541 42.9639 379.777C43.0498 380.014 43.168 380.207 43.3184 380.357C43.4688 380.508 43.6442 380.615 43.8447 380.68C44.0524 380.744 44.2816 380.776 44.5322 380.776C45.1696 380.776 45.6709 380.647 46.0361 380.39C46.4085 380.132 46.6699 379.781 46.8203 379.337C46.9779 378.886 47.0566 378.384 47.0566 377.833ZM57.8633 371.377V373.568H51.0957V371.377H57.8633ZM52.7715 368.509H55.8652V379.498C55.8652 379.835 55.9082 380.092 55.9941 380.271C56.0872 380.451 56.2233 380.576 56.4023 380.647C56.5814 380.712 56.807 380.744 57.0791 380.744C57.2725 380.744 57.4443 380.737 57.5947 380.723C57.7523 380.701 57.8848 380.68 57.9922 380.658L58.0029 382.936C57.738 383.021 57.4515 383.09 57.1436 383.14C56.8356 383.19 56.4954 383.215 56.123 383.215C55.4427 383.215 54.8483 383.104 54.3398 382.882C53.8385 382.653 53.4518 382.287 53.1797 381.786C52.9076 381.285 52.7715 380.626 52.7715 379.81V368.509ZM72.9561 367.198H73.4072V369.669H73.2246C72.4082 369.669 71.6813 369.791 71.0439 370.034C70.4066 370.278 69.8659 370.625 69.4219 371.076C68.985 371.52 68.6484 372.057 68.4121 372.688C68.1829 373.318 68.0684 374.023 68.0684 374.804V377.403C68.0684 377.962 68.1221 378.456 68.2295 378.886C68.3441 379.308 68.5052 379.663 68.7129 379.949C68.9277 380.229 69.1784 380.44 69.4648 380.583C69.7513 380.719 70.0736 380.787 70.4316 380.787C70.7682 380.787 71.0726 380.715 71.3447 380.572C71.624 380.429 71.8604 380.229 72.0537 379.971C72.2542 379.706 72.4046 379.398 72.5049 379.047C72.6123 378.689 72.666 378.299 72.666 377.876C72.666 377.453 72.6123 377.063 72.5049 376.705C72.4046 376.347 72.2542 376.039 72.0537 375.781C71.8532 375.516 71.6097 375.312 71.3232 375.169C71.0368 375.026 70.7145 374.954 70.3564 374.954C69.8695 374.954 69.4398 375.069 69.0674 375.298C68.7021 375.52 68.4157 375.806 68.208 376.157C68.0003 376.508 67.8893 376.877 67.875 377.264L66.9404 376.662C66.9619 376.111 67.0765 375.588 67.2842 375.094C67.499 374.6 67.7926 374.163 68.165 373.783C68.5446 373.396 68.9993 373.096 69.5293 372.881C70.0592 372.659 70.6572 372.548 71.3232 372.548C72.0537 372.548 72.6947 372.688 73.2461 372.967C73.8047 373.246 74.2702 373.629 74.6426 374.116C75.015 374.603 75.2943 375.165 75.4805 375.803C75.6667 376.44 75.7598 377.12 75.7598 377.844C75.7598 378.603 75.6344 379.308 75.3838 379.96C75.1403 380.612 74.7858 381.181 74.3203 381.668C73.862 382.155 73.3105 382.535 72.666 382.807C72.0215 383.079 71.2982 383.215 70.4961 383.215C69.6654 383.215 68.9098 383.064 68.2295 382.764C67.5563 382.456 66.9762 382.026 66.4893 381.475C66.0023 380.923 65.6263 380.268 65.3613 379.509C65.1035 378.75 64.9746 377.919 64.9746 377.017V375.813C64.9746 374.553 65.1572 373.4 65.5225 372.354C65.8949 371.302 66.4284 370.392 67.123 369.626C67.8177 368.853 68.6556 368.255 69.6367 367.832C70.6178 367.41 71.7243 367.198 72.9561 367.198Z" fill="white"/>
<path d="M37.7109 444.814V445.556C37.7109 446.744 37.5498 447.812 37.2275 448.757C36.9053 449.702 36.4505 450.508 35.8633 451.174C35.276 451.833 34.5742 452.338 33.7578 452.688C32.9486 453.039 32.0498 453.215 31.0615 453.215C30.0804 453.215 29.1816 453.039 28.3652 452.688C27.556 452.338 26.8542 451.833 26.2598 451.174C25.6654 450.508 25.2035 449.702 24.874 448.757C24.5518 447.812 24.3906 446.744 24.3906 445.556V444.814C24.3906 443.618 24.5518 442.551 24.874 441.613C25.1963 440.668 25.651 439.862 26.2383 439.196C26.8327 438.53 27.5345 438.022 28.3438 437.671C29.1602 437.32 30.0589 437.145 31.04 437.145C32.0283 437.145 32.9271 437.32 33.7363 437.671C34.5527 438.022 35.2546 438.53 35.8418 439.196C36.4362 439.862 36.8945 440.668 37.2168 441.613C37.5462 442.551 37.7109 443.618 37.7109 444.814ZM34.4561 445.556V444.793C34.4561 443.962 34.3809 443.232 34.2305 442.602C34.0801 441.971 33.8581 441.441 33.5645 441.012C33.2708 440.582 32.9128 440.26 32.4902 440.045C32.0677 439.823 31.5843 439.712 31.04 439.712C30.4958 439.712 30.0124 439.823 29.5898 440.045C29.1745 440.26 28.82 440.582 28.5264 441.012C28.2399 441.441 28.0215 441.971 27.8711 442.602C27.7207 443.232 27.6455 443.962 27.6455 444.793V445.556C27.6455 446.379 27.7207 447.11 27.8711 447.747C28.0215 448.377 28.2435 448.911 28.5371 449.348C28.8307 449.777 29.1888 450.103 29.6113 450.325C30.0339 450.547 30.5173 450.658 31.0615 450.658C31.6058 450.658 32.0892 450.547 32.5117 450.325C32.9342 450.103 33.2887 449.777 33.5752 449.348C33.8617 448.911 34.0801 448.377 34.2305 447.747C34.3809 447.11 34.4561 446.379 34.4561 445.556ZM46.7129 450.218V441.377H49.8066V453H46.8955L46.7129 450.218ZM47.0566 447.833L47.9697 447.812C47.9697 448.585 47.8802 449.305 47.7012 449.971C47.5221 450.63 47.2536 451.202 46.8955 451.689C46.5374 452.169 46.0863 452.545 45.542 452.817C44.9977 453.082 44.3568 453.215 43.6191 453.215C43.0534 453.215 42.5306 453.136 42.0508 452.979C41.5781 452.814 41.1699 452.56 40.8262 452.216C40.4896 451.865 40.2246 451.417 40.0312 450.873C39.8451 450.322 39.752 449.659 39.752 448.886V441.377H42.8457V448.907C42.8457 449.251 42.8851 449.541 42.9639 449.777C43.0498 450.014 43.168 450.207 43.3184 450.357C43.4688 450.508 43.6442 450.615 43.8447 450.68C44.0524 450.744 44.2816 450.776 44.5322 450.776C45.1696 450.776 45.6709 450.647 46.0361 450.39C46.4085 450.132 46.6699 449.781 46.8203 449.337C46.9779 448.886 47.0566 448.384 47.0566 447.833ZM57.8633 441.377V443.568H51.0957V441.377H57.8633ZM52.7715 438.509H55.8652V449.498C55.8652 449.835 55.9082 450.092 55.9941 450.271C56.0872 450.451 56.2233 450.576 56.4023 450.647C56.5814 450.712 56.807 450.744 57.0791 450.744C57.2725 450.744 57.4443 450.737 57.5947 450.723C57.7523 450.701 57.8848 450.68 57.9922 450.658L58.0029 452.936C57.738 453.021 57.4515 453.09 57.1436 453.14C56.8356 453.19 56.4954 453.215 56.123 453.215C55.4427 453.215 54.8483 453.104 54.3398 452.882C53.8385 452.653 53.4518 452.287 53.1797 451.786C52.9076 451.285 52.7715 450.626 52.7715 449.81V438.509ZM75.5986 437.359V439.024L69.5508 453H66.2852L72.333 439.776H64.5449V437.359H75.5986Z" fill="white"/>
<path d="M37.7109 514.814V515.556C37.7109 516.744 37.5498 517.812 37.2275 518.757C36.9053 519.702 36.4505 520.508 35.8633 521.174C35.276 521.833 34.5742 522.338 33.7578 522.688C32.9486 523.039 32.0498 523.215 31.0615 523.215C30.0804 523.215 29.1816 523.039 28.3652 522.688C27.556 522.338 26.8542 521.833 26.2598 521.174C25.6654 520.508 25.2035 519.702 24.874 518.757C24.5518 517.812 24.3906 516.744 24.3906 515.556V514.814C24.3906 513.618 24.5518 512.551 24.874 511.613C25.1963 510.668 25.651 509.862 26.2383 509.196C26.8327 508.53 27.5345 508.022 28.3438 507.671C29.1602 507.32 30.0589 507.145 31.04 507.145C32.0283 507.145 32.9271 507.32 33.7363 507.671C34.5527 508.022 35.2546 508.53 35.8418 509.196C36.4362 509.862 36.8945 510.668 37.2168 511.613C37.5462 512.551 37.7109 513.618 37.7109 514.814ZM34.4561 515.556V514.793C34.4561 513.962 34.3809 513.232 34.2305 512.602C34.0801 511.971 33.8581 511.441 33.5645 511.012C33.2708 510.582 32.9128 510.26 32.4902 510.045C32.0677 509.823 31.5843 509.712 31.04 509.712C30.4958 509.712 30.0124 509.823 29.5898 510.045C29.1745 510.26 28.82 510.582 28.5264 511.012C28.2399 511.441 28.0215 511.971 27.8711 512.602C27.7207 513.232 27.6455 513.962 27.6455 514.793V515.556C27.6455 516.379 27.7207 517.11 27.8711 517.747C28.0215 518.377 28.2435 518.911 28.5371 519.348C28.8307 519.777 29.1888 520.103 29.6113 520.325C30.0339 520.547 30.5173 520.658 31.0615 520.658C31.6058 520.658 32.0892 520.547 32.5117 520.325C32.9342 520.103 33.2887 519.777 33.5752 519.348C33.8617 518.911 34.0801 518.377 34.2305 517.747C34.3809 517.11 34.4561 516.379 34.4561 515.556ZM46.7129 520.218V511.377H49.8066V523H46.8955L46.7129 520.218ZM47.0566 517.833L47.9697 517.812C47.9697 518.585 47.8802 519.305 47.7012 519.971C47.5221 520.63 47.2536 521.202 46.8955 521.689C46.5374 522.169 46.0863 522.545 45.542 522.817C44.9977 523.082 44.3568 523.215 43.6191 523.215C43.0534 523.215 42.5306 523.136 42.0508 522.979C41.5781 522.814 41.1699 522.56 40.8262 522.216C40.4896 521.865 40.2246 521.417 40.0312 520.873C39.8451 520.322 39.752 519.659 39.752 518.886V511.377H42.8457V518.907C42.8457 519.251 42.8851 519.541 42.9639 519.777C43.0498 520.014 43.168 520.207 43.3184 520.357C43.4688 520.508 43.6442 520.615 43.8447 520.68C44.0524 520.744 44.2816 520.776 44.5322 520.776C45.1696 520.776 45.6709 520.647 46.0361 520.39C46.4085 520.132 46.6699 519.781 46.8203 519.337C46.9779 518.886 47.0566 518.384 47.0566 517.833ZM57.8633 511.377V513.568H51.0957V511.377H57.8633ZM52.7715 508.509H55.8652V519.498C55.8652 519.835 55.9082 520.092 55.9941 520.271C56.0872 520.451 56.2233 520.576 56.4023 520.647C56.5814 520.712 56.807 520.744 57.0791 520.744C57.2725 520.744 57.4443 520.737 57.5947 520.723C57.7523 520.701 57.8848 520.68 57.9922 520.658L58.0029 522.936C57.738 523.021 57.4515 523.09 57.1436 523.14C56.8356 523.19 56.4954 523.215 56.123 523.215C55.4427 523.215 54.8483 523.104 54.3398 522.882C53.8385 522.653 53.4518 522.287 53.1797 521.786C52.9076 521.285 52.7715 520.626 52.7715 519.81V508.509ZM75.5127 518.714C75.5127 519.695 75.2835 520.522 74.8252 521.195C74.3669 521.861 73.7367 522.366 72.9346 522.71C72.1396 523.047 71.2373 523.215 70.2275 523.215C69.2178 523.215 68.3118 523.047 67.5098 522.71C66.7077 522.366 66.0739 521.861 65.6084 521.195C65.1429 520.522 64.9102 519.695 64.9102 518.714C64.9102 518.055 65.0426 517.461 65.3076 516.931C65.5726 516.394 65.9414 515.935 66.4141 515.556C66.8939 515.169 67.4561 514.875 68.1006 514.675C68.7451 514.467 69.4469 514.363 70.2061 514.363C71.223 514.363 72.1325 514.542 72.9346 514.9C73.7367 515.258 74.3669 515.763 74.8252 516.415C75.2835 517.067 75.5127 517.833 75.5127 518.714ZM72.3975 518.51C72.3975 518.03 72.3044 517.618 72.1182 517.274C71.9391 516.924 71.6849 516.655 71.3555 516.469C71.026 516.283 70.6429 516.189 70.2061 516.189C69.7692 516.189 69.3861 516.283 69.0566 516.469C68.7272 516.655 68.4694 516.924 68.2832 517.274C68.1042 517.618 68.0146 518.03 68.0146 518.51C68.0146 518.982 68.1042 519.391 68.2832 519.734C68.4694 520.078 68.7272 520.343 69.0566 520.529C69.3932 520.708 69.7835 520.798 70.2275 520.798C70.6715 520.798 71.0547 520.708 71.377 520.529C71.7064 520.343 71.957 520.078 72.1289 519.734C72.3079 519.391 72.3975 518.982 72.3975 518.51ZM75.1797 511.506C75.1797 512.301 74.9684 513.006 74.5459 513.622C74.1234 514.231 73.5361 514.707 72.7842 515.051C72.0394 515.395 71.1872 515.566 70.2275 515.566C69.2607 515.566 68.4014 515.395 67.6494 515.051C66.8975 514.707 66.3102 514.231 65.8877 513.622C65.4652 513.006 65.2539 512.301 65.2539 511.506C65.2539 510.561 65.4652 509.766 65.8877 509.121C66.3174 508.469 66.9046 507.975 67.6494 507.639C68.4014 507.302 69.2536 507.134 70.2061 507.134C71.1729 507.134 72.0286 507.302 72.7734 507.639C73.5254 507.975 74.1126 508.469 74.5352 509.121C74.9648 509.766 75.1797 510.561 75.1797 511.506ZM72.0859 511.646C72.0859 511.223 72.0107 510.858 71.8604 510.55C71.71 510.235 71.4951 509.991 71.2158 509.819C70.9437 509.647 70.6071 509.562 70.2061 509.562C69.8193 509.562 69.4863 509.644 69.207 509.809C68.9349 509.973 68.7236 510.213 68.5732 510.528C68.43 510.836 68.3584 511.209 68.3584 511.646C68.3584 512.068 68.43 512.44 68.5732 512.763C68.7236 513.078 68.9385 513.325 69.2178 513.504C69.4971 513.683 69.8337 513.772 70.2275 513.772C70.6214 513.772 70.9544 513.683 71.2266 513.504C71.5059 513.325 71.7171 513.078 71.8604 512.763C72.0107 512.44 72.0859 512.068 72.0859 511.646Z" fill="white"/>
</svg>
