<svg width="40" height="30" viewBox="0 0 40 30" fill="none" xmlns="http://www.w3.org/2000/svg">
<path d="M14.1176 30C15.2222 30 16.1176 29.1046 16.1176 28V21.4118C16.1176 20.3072 17.0131 19.4118 18.1176 19.4118H21.1765C22.281 19.4118 23.1765 20.3072 23.1765 21.4118V28C23.1765 29.1046 24.0719 30 25.1765 30H30C31.1046 30 32 29.1046 32 28V15.8824H34.6882C35.6046 15.8824 36.0383 14.7522 35.3571 14.1391L20.985 1.20414C20.2244 0.519586 19.0697 0.519588 18.3091 1.20414L3.93699 14.1391C3.25578 14.7522 3.68947 15.8824 4.60596 15.8824H7.29412V28C7.29412 29.1046 8.18955 30 9.29412 30H14.1176Z" fill="white"/>
</svg>
