<svg width="27" height="30" viewBox="0 0 27 30" fill="none" xmlns="http://www.w3.org/2000/svg">
<g clip-path="url(#clip0_66_29)">
<path d="M1.8761 30C1.8761 24.3834 1.8761 18.7668 1.8761 13.1151C1.71781 13.1151 1.5771 13.1151 1.43053 13.1151C0.609735 13.1034 0.00586539 12.5054 2.5765e-06 11.6846C-0.00586023 10.1427 -0.00586023 8.60074 2.5765e-06 7.05296C2.5765e-06 6.21458 0.603872 5.62243 1.44225 5.61071C1.5771 5.61071 1.71194 5.61071 1.86438 5.61071C1.86438 3.72874 1.86438 1.8761 1.86438 0.00585938C3.11902 0.00585938 4.35607 0.00585938 5.61657 0.00585938C5.61657 1.86437 5.61657 3.72288 5.61657 5.61657C5.81005 5.61657 5.97421 5.61071 6.13836 5.61657C6.87708 5.64588 7.48681 6.23216 7.49267 6.97088C7.51026 8.57142 7.51026 10.172 7.49267 11.7784C7.48681 12.4995 6.87708 13.0858 6.15595 13.121C5.99179 13.1268 5.82764 13.121 5.62244 13.121C5.62244 18.761 5.62244 24.3834 5.62244 30.0059C4.37952 30 3.13074 30 1.8761 30ZM1.89955 7.49853C1.89955 8.75903 1.89955 9.99022 1.89955 11.2156C3.15419 11.2156 4.38538 11.2156 5.61657 11.2156C5.61657 9.96677 5.61657 8.73558 5.61657 7.49853C4.37366 7.49853 3.14247 7.49853 1.89955 7.49853Z" fill="white"/>
<path d="M11.2567 30C11.2567 28.1356 11.2567 26.2712 11.2567 24.3717C11.0926 24.3717 10.9518 24.3717 10.8111 24.3717C9.99621 24.36 9.38648 23.7561 9.38648 22.9412C9.38061 21.4051 9.38061 19.8749 9.38648 18.3389C9.38648 17.4653 9.99035 16.8732 10.8639 16.8673C10.9812 16.8673 11.0984 16.8673 11.245 16.8673C11.245 11.2449 11.245 5.63416 11.245 0.00585938C12.5114 0.00585938 13.7425 0.00585938 15.0089 0.00585938C15.0089 5.61657 15.0089 11.2273 15.0089 16.8673C15.1907 16.8673 15.3431 16.8673 15.4955 16.8673C16.2577 16.8849 16.8791 17.4829 16.885 18.2451C16.8967 19.828 16.8967 21.411 16.885 22.9939C16.8791 23.7444 16.2694 24.3424 15.519 24.3658C15.3665 24.3717 15.2082 24.3658 15.0148 24.3658C15.0148 26.2537 15.0148 28.1239 15.0148 29.9941C13.7601 30 12.5114 30 11.2567 30ZM11.2743 22.4721C12.5289 22.4721 13.766 22.4721 14.9913 22.4721C14.9913 21.2175 14.9913 19.9863 14.9913 18.7551C13.7425 18.7551 12.5172 18.7551 11.2743 18.7551C11.2743 19.998 11.2743 21.2234 11.2743 22.4721Z" fill="white"/>
<path d="M20.6371 30C20.6371 24.3834 20.6371 18.7669 20.6371 13.1151C20.4729 13.1151 20.3322 13.1151 20.1857 13.1151C19.3707 13.1034 18.761 12.4995 18.761 11.6787C18.7551 10.1427 18.7551 8.61247 18.761 7.07641C18.761 6.20285 19.3649 5.61657 20.2384 5.61071C20.3557 5.61071 20.4729 5.61071 20.6195 5.61071C20.6195 3.74047 20.6195 1.88196 20.6195 0C21.8859 0 23.1171 0 24.3776 0C24.3776 1.85851 24.3776 3.71116 24.3776 5.61071C24.5183 5.61071 24.6414 5.61071 24.7645 5.61071C25.4856 5.61657 25.9605 5.95075 26.2068 6.63084C26.2185 6.66602 26.2419 6.69533 26.2654 6.72464C26.2654 8.48349 26.2654 10.2423 26.2654 12.0012C26.2478 12.0305 26.2243 12.0657 26.2068 12.095C25.9605 12.7692 25.4856 13.1092 24.7645 13.1151C24.6414 13.1151 24.5183 13.1151 24.3834 13.1151C24.3834 18.7727 24.3834 24.3893 24.3834 30C23.1405 30 21.8917 30 20.6371 30ZM20.6605 7.49853C20.6605 8.75318 20.6605 9.99023 20.6605 11.2156C21.9152 11.2156 23.1464 11.2156 24.3776 11.2156C24.3776 9.96678 24.3776 8.74145 24.3776 7.49853C23.1346 7.49853 21.9093 7.49853 20.6605 7.49853Z" fill="white"/>
</g>
<defs>
<clipPath id="clip0_66_29">
<rect width="26.2654" height="30" fill="white"/>
</clipPath>
</defs>
</svg>
