<svg width="100" height="540" viewBox="0 0 100 540" fill="none" xmlns="http://www.w3.org/2000/svg">
<path d="M36.3789 17.3594V33H33.167V17.3594H36.3789ZM42.2334 23.8584V33H39.1396V21.377H42.04L42.2334 23.8584ZM41.7822 26.7803H40.9443C40.9443 25.9209 41.0553 25.1475 41.2773 24.46C41.4993 23.7653 41.8109 23.1745 42.2119 22.6875C42.613 22.1934 43.0892 21.8174 43.6406 21.5596C44.1992 21.2946 44.8223 21.1621 45.5098 21.1621C46.054 21.1621 46.5518 21.2409 47.0029 21.3984C47.4541 21.556 47.8408 21.8066 48.1631 22.1504C48.4925 22.4941 48.7432 22.9489 48.915 23.5146C49.0941 24.0804 49.1836 24.7715 49.1836 25.5879V33H46.0684V25.5771C46.0684 25.0615 45.9967 24.6605 45.8535 24.374C45.7103 24.0876 45.499 23.887 45.2197 23.7725C44.9476 23.6507 44.611 23.5898 44.21 23.5898C43.7946 23.5898 43.4329 23.6722 43.125 23.8369C42.8242 24.0016 42.5736 24.2308 42.373 24.5244C42.1797 24.8109 42.0329 25.1475 41.9326 25.5342C41.8324 25.9209 41.7822 26.3363 41.7822 26.7803ZM64.4268 17.3271V33H61.333V20.8936L57.6162 22.0752V19.6367L64.0938 17.3271H64.4268Z" fill="white"/>
<path d="M36.3789 87.3594V103H33.167V87.3594H36.3789ZM42.2334 93.8584V103H39.1396V91.377H42.04L42.2334 93.8584ZM41.7822 96.7803H40.9443C40.9443 95.9209 41.0553 95.1475 41.2773 94.46C41.4993 93.7653 41.8109 93.1745 42.2119 92.6875C42.613 92.1934 43.0892 91.8174 43.6406 91.5596C44.1992 91.2946 44.8223 91.1621 45.5098 91.1621C46.054 91.1621 46.5518 91.2409 47.0029 91.3984C47.4541 91.556 47.8408 91.8066 48.1631 92.1504C48.4925 92.4941 48.7432 92.9489 48.915 93.5146C49.0941 94.0804 49.1836 94.7715 49.1836 95.5879V103H46.0684V95.5771C46.0684 95.0615 45.9967 94.6605 45.8535 94.374C45.7103 94.0876 45.499 93.887 45.2197 93.7725C44.9476 93.6507 44.611 93.5898 44.21 93.5898C43.7946 93.5898 43.4329 93.6722 43.125 93.8369C42.8242 94.0016 42.5736 94.2308 42.373 94.5244C42.1797 94.8109 42.0329 95.1475 41.9326 95.5342C41.8324 95.9209 41.7822 96.3363 41.7822 96.7803ZM67.585 100.583V103H56.8857V100.938L61.9453 95.5127C62.4538 94.9469 62.8548 94.4492 63.1484 94.0195C63.4421 93.5827 63.6533 93.1924 63.7822 92.8486C63.9183 92.4977 63.9863 92.1647 63.9863 91.8496C63.9863 91.377 63.9076 90.9723 63.75 90.6357C63.5924 90.292 63.3597 90.027 63.0518 89.8408C62.751 89.6546 62.3786 89.5615 61.9346 89.5615C61.4619 89.5615 61.0537 89.6761 60.71 89.9053C60.3734 90.1344 60.1156 90.4531 59.9365 90.8613C59.7646 91.2695 59.6787 91.7314 59.6787 92.2471H56.5742C56.5742 91.3161 56.7962 90.4639 57.2402 89.6904C57.6842 88.9098 58.3109 88.2904 59.1201 87.832C59.9294 87.3665 60.889 87.1338 61.999 87.1338C63.0947 87.1338 64.0186 87.3128 64.7705 87.6709C65.5296 88.0218 66.1025 88.5303 66.4893 89.1963C66.8831 89.8551 67.0801 90.6429 67.0801 91.5596C67.0801 92.0752 66.9977 92.5801 66.833 93.0742C66.6683 93.5612 66.432 94.0482 66.124 94.5352C65.8232 95.015 65.458 95.502 65.0283 95.9961C64.5986 96.4902 64.1224 97.0023 63.5996 97.5322L60.8818 100.583H67.585Z" fill="white"/>
<path d="M36.3789 157.359V173H33.167V157.359H36.3789ZM42.2334 163.858V173H39.1396V161.377H42.04L42.2334 163.858ZM41.7822 166.78H40.9443C40.9443 165.921 41.0553 165.147 41.2773 164.46C41.4993 163.765 41.8109 163.174 42.2119 162.688C42.613 162.193 43.0892 161.817 43.6406 161.56C44.1992 161.295 44.8223 161.162 45.5098 161.162C46.054 161.162 46.5518 161.241 47.0029 161.398C47.4541 161.556 47.8408 161.807 48.1631 162.15C48.4925 162.494 48.7432 162.949 48.915 163.515C49.0941 164.08 49.1836 164.771 49.1836 165.588V173H46.0684V165.577C46.0684 165.062 45.9967 164.66 45.8535 164.374C45.7103 164.088 45.499 163.887 45.2197 163.772C44.9476 163.651 44.611 163.59 44.21 163.59C43.7946 163.59 43.4329 163.672 43.125 163.837C42.8242 164.002 42.5736 164.231 42.373 164.524C42.1797 164.811 42.0329 165.147 41.9326 165.534C41.8324 165.921 41.7822 166.336 41.7822 166.78ZM60.0547 163.837H61.709C62.2389 163.837 62.6758 163.747 63.0195 163.568C63.3633 163.382 63.6175 163.124 63.7822 162.795C63.9541 162.458 64.04 162.068 64.04 161.624C64.04 161.223 63.9613 160.868 63.8037 160.561C63.6533 160.245 63.4206 160.002 63.1055 159.83C62.7904 159.651 62.3929 159.562 61.9131 159.562C61.5335 159.562 61.1826 159.637 60.8604 159.787C60.5381 159.938 60.2803 160.149 60.0869 160.421C59.8936 160.693 59.7969 161.022 59.7969 161.409H56.6924C56.6924 160.55 56.9215 159.801 57.3799 159.164C57.8454 158.527 58.4684 158.029 59.249 157.671C60.0296 157.313 60.889 157.134 61.8271 157.134C62.887 157.134 63.8145 157.306 64.6094 157.649C65.4043 157.986 66.0238 158.484 66.4678 159.143C66.9118 159.801 67.1338 160.618 67.1338 161.592C67.1338 162.086 67.0192 162.566 66.79 163.031C66.5609 163.49 66.2314 163.905 65.8018 164.277C65.3792 164.643 64.8636 164.936 64.2549 165.158C63.6462 165.373 62.9622 165.48 62.2031 165.48H60.0547V163.837ZM60.0547 166.189V164.589H62.2031C63.0553 164.589 63.8037 164.686 64.4482 164.879C65.0928 165.072 65.6335 165.352 66.0703 165.717C66.5072 166.075 66.8366 166.501 67.0586 166.995C67.2806 167.482 67.3916 168.023 67.3916 168.617C67.3916 169.348 67.252 169.999 66.9727 170.572C66.6934 171.138 66.2995 171.618 65.791 172.012C65.2897 172.406 64.7025 172.706 64.0293 172.914C63.3561 173.115 62.6221 173.215 61.8271 173.215C61.1683 173.215 60.5202 173.125 59.8828 172.946C59.2526 172.76 58.6797 172.484 58.1641 172.119C57.6556 171.747 57.2474 171.281 56.9395 170.723C56.6387 170.157 56.4883 169.487 56.4883 168.714H59.5928C59.5928 169.115 59.693 169.473 59.8936 169.788C60.0941 170.103 60.3698 170.35 60.7207 170.529C61.0788 170.708 61.4762 170.798 61.9131 170.798C62.4072 170.798 62.8298 170.708 63.1807 170.529C63.5387 170.343 63.8109 170.085 63.9971 169.756C64.1904 169.419 64.2871 169.029 64.2871 168.585C64.2871 168.012 64.1833 167.554 63.9756 167.21C63.7679 166.859 63.4707 166.601 63.084 166.437C62.6973 166.272 62.2389 166.189 61.709 166.189H60.0547Z" fill="white"/>
<path d="M36.3789 227.359V243H33.167V227.359H36.3789ZM42.2334 233.858V243H39.1396V231.377H42.04L42.2334 233.858ZM41.7822 236.78H40.9443C40.9443 235.921 41.0553 235.147 41.2773 234.46C41.4993 233.765 41.8109 233.174 42.2119 232.688C42.613 232.193 43.0892 231.817 43.6406 231.56C44.1992 231.295 44.8223 231.162 45.5098 231.162C46.054 231.162 46.5518 231.241 47.0029 231.398C47.4541 231.556 47.8408 231.807 48.1631 232.15C48.4925 232.494 48.7432 232.949 48.915 233.515C49.0941 234.08 49.1836 234.771 49.1836 235.588V243H46.0684V235.577C46.0684 235.062 45.9967 234.66 45.8535 234.374C45.7103 234.088 45.499 233.887 45.2197 233.772C44.9476 233.651 44.611 233.59 44.21 233.59C43.7946 233.59 43.4329 233.672 43.125 233.837C42.8242 234.002 42.5736 234.231 42.373 234.524C42.1797 234.811 42.0329 235.147 41.9326 235.534C41.8324 235.921 41.7822 236.336 41.7822 236.78ZM67.8428 237.156V239.584H56.5742L56.4238 237.704L62.9443 227.359H65.4043L62.7402 231.817L59.4961 237.156H67.8428ZM66.0703 227.359V243H62.9766V227.359H66.0703Z" fill="white"/>
<path d="M36.3789 297.359V313H33.167V297.359H36.3789ZM42.2334 303.858V313H39.1396V301.377H42.04L42.2334 303.858ZM41.7822 306.78H40.9443C40.9443 305.921 41.0553 305.147 41.2773 304.46C41.4993 303.765 41.8109 303.174 42.2119 302.688C42.613 302.193 43.0892 301.817 43.6406 301.56C44.1992 301.295 44.8223 301.162 45.5098 301.162C46.054 301.162 46.5518 301.241 47.0029 301.398C47.4541 301.556 47.8408 301.807 48.1631 302.15C48.4925 302.494 48.7432 302.949 48.915 303.515C49.0941 304.08 49.1836 304.771 49.1836 305.588V313H46.0684V305.577C46.0684 305.062 45.9967 304.66 45.8535 304.374C45.7103 304.088 45.499 303.887 45.2197 303.772C44.9476 303.651 44.611 303.59 44.21 303.59C43.7946 303.59 43.4329 303.672 43.125 303.837C42.8242 304.002 42.5736 304.231 42.373 304.524C42.1797 304.811 42.0329 305.147 41.9326 305.534C41.8324 305.921 41.7822 306.336 41.7822 306.78ZM59.7969 305.878L57.3262 305.287L58.2178 297.359H67.0049V299.862H60.7637L60.377 303.332C60.5846 303.21 60.8997 303.081 61.3223 302.945C61.7448 302.802 62.2174 302.73 62.7402 302.73C63.4993 302.73 64.1725 302.849 64.7598 303.085C65.347 303.321 65.8447 303.665 66.2529 304.116C66.6683 304.567 66.9834 305.119 67.1982 305.771C67.4131 306.422 67.5205 307.16 67.5205 307.983C67.5205 308.678 67.4131 309.34 67.1982 309.971C66.9834 310.594 66.6576 311.152 66.2207 311.646C65.7839 312.133 65.236 312.517 64.5771 312.796C63.9183 313.075 63.1377 313.215 62.2354 313.215C61.5622 313.215 60.9105 313.115 60.2803 312.914C59.6572 312.714 59.0951 312.416 58.5938 312.022C58.0996 311.629 57.7021 311.152 57.4014 310.594C57.1077 310.028 56.9538 309.383 56.9395 308.66H60.0117C60.0547 309.104 60.1693 309.487 60.3555 309.81C60.5488 310.125 60.8031 310.368 61.1182 310.54C61.4333 310.712 61.8021 310.798 62.2246 310.798C62.6185 310.798 62.9551 310.723 63.2344 310.572C63.5137 310.422 63.7393 310.214 63.9111 309.949C64.083 309.677 64.2083 309.362 64.2871 309.004C64.373 308.639 64.416 308.245 64.416 307.822C64.416 307.4 64.3659 307.017 64.2656 306.673C64.1654 306.329 64.0114 306.032 63.8037 305.781C63.596 305.531 63.3311 305.337 63.0088 305.201C62.6937 305.065 62.3249 304.997 61.9023 304.997C61.3294 304.997 60.8854 305.087 60.5703 305.266C60.2624 305.445 60.0046 305.649 59.7969 305.878Z" fill="white"/>
<path d="M36.3789 367.359V383H33.167V367.359H36.3789ZM42.2334 373.858V383H39.1396V371.377H42.04L42.2334 373.858ZM41.7822 376.78H40.9443C40.9443 375.921 41.0553 375.147 41.2773 374.46C41.4993 373.765 41.8109 373.174 42.2119 372.688C42.613 372.193 43.0892 371.817 43.6406 371.56C44.1992 371.295 44.8223 371.162 45.5098 371.162C46.054 371.162 46.5518 371.241 47.0029 371.398C47.4541 371.556 47.8408 371.807 48.1631 372.15C48.4925 372.494 48.7432 372.949 48.915 373.515C49.0941 374.08 49.1836 374.771 49.1836 375.588V383H46.0684V375.577C46.0684 375.062 45.9967 374.66 45.8535 374.374C45.7103 374.088 45.499 373.887 45.2197 373.772C44.9476 373.651 44.611 373.59 44.21 373.59C43.7946 373.59 43.4329 373.672 43.125 373.837C42.8242 374.002 42.5736 374.231 42.373 374.524C42.1797 374.811 42.0329 375.147 41.9326 375.534C41.8324 375.921 41.7822 376.336 41.7822 376.78ZM64.8672 367.198H65.3184V369.669H65.1357C64.3193 369.669 63.5924 369.791 62.9551 370.034C62.3177 370.278 61.777 370.625 61.333 371.076C60.8962 371.52 60.5596 372.057 60.3232 372.688C60.0941 373.318 59.9795 374.023 59.9795 374.804V377.403C59.9795 377.962 60.0332 378.456 60.1406 378.886C60.2552 379.308 60.4163 379.663 60.624 379.949C60.8389 380.229 61.0895 380.44 61.376 380.583C61.6624 380.719 61.9847 380.787 62.3428 380.787C62.6794 380.787 62.9837 380.715 63.2559 380.572C63.5352 380.429 63.7715 380.229 63.9648 379.971C64.1654 379.706 64.3158 379.398 64.416 379.047C64.5234 378.689 64.5771 378.299 64.5771 377.876C64.5771 377.453 64.5234 377.063 64.416 376.705C64.3158 376.347 64.1654 376.039 63.9648 375.781C63.7643 375.516 63.5208 375.312 63.2344 375.169C62.9479 375.026 62.6257 374.954 62.2676 374.954C61.7806 374.954 61.3509 375.069 60.9785 375.298C60.6133 375.52 60.3268 375.806 60.1191 376.157C59.9115 376.508 59.8005 376.877 59.7861 377.264L58.8516 376.662C58.873 376.111 58.9876 375.588 59.1953 375.094C59.4102 374.6 59.7038 374.163 60.0762 373.783C60.4557 373.396 60.9105 373.096 61.4404 372.881C61.9704 372.659 62.5684 372.548 63.2344 372.548C63.9648 372.548 64.6058 372.688 65.1572 372.967C65.7158 373.246 66.1813 373.629 66.5537 374.116C66.9261 374.603 67.2054 375.165 67.3916 375.803C67.5778 376.44 67.6709 377.12 67.6709 377.844C67.6709 378.603 67.5456 379.308 67.2949 379.96C67.0514 380.612 66.6969 381.181 66.2314 381.668C65.7731 382.155 65.2217 382.535 64.5771 382.807C63.9326 383.079 63.2093 383.215 62.4072 383.215C61.5765 383.215 60.821 383.064 60.1406 382.764C59.4674 382.456 58.8874 382.026 58.4004 381.475C57.9134 380.923 57.5374 380.268 57.2725 379.509C57.0146 378.75 56.8857 377.919 56.8857 377.017V375.813C56.8857 374.553 57.0684 373.4 57.4336 372.354C57.806 371.302 58.3395 370.392 59.0342 369.626C59.7288 368.853 60.5667 368.255 61.5479 367.832C62.529 367.41 63.6354 367.198 64.8672 367.198Z" fill="white"/>
<path d="M36.3789 437.359V453H33.167V437.359H36.3789ZM42.2334 443.858V453H39.1396V441.377H42.04L42.2334 443.858ZM41.7822 446.78H40.9443C40.9443 445.921 41.0553 445.147 41.2773 444.46C41.4993 443.765 41.8109 443.174 42.2119 442.688C42.613 442.193 43.0892 441.817 43.6406 441.56C44.1992 441.295 44.8223 441.162 45.5098 441.162C46.054 441.162 46.5518 441.241 47.0029 441.398C47.4541 441.556 47.8408 441.807 48.1631 442.15C48.4925 442.494 48.7432 442.949 48.915 443.515C49.0941 444.08 49.1836 444.771 49.1836 445.588V453H46.0684V445.577C46.0684 445.062 45.9967 444.66 45.8535 444.374C45.7103 444.088 45.499 443.887 45.2197 443.772C44.9476 443.651 44.611 443.59 44.21 443.59C43.7946 443.59 43.4329 443.672 43.125 443.837C42.8242 444.002 42.5736 444.231 42.373 444.524C42.1797 444.811 42.0329 445.147 41.9326 445.534C41.8324 445.921 41.7822 446.336 41.7822 446.78ZM67.5098 437.359V439.024L61.4619 453H58.1963L64.2441 439.776H56.4561V437.359H67.5098Z" fill="white"/>
<path d="M36.3789 507.359V523H33.167V507.359H36.3789ZM42.2334 513.858V523H39.1396V511.377H42.04L42.2334 513.858ZM41.7822 516.78H40.9443C40.9443 515.921 41.0553 515.147 41.2773 514.46C41.4993 513.765 41.8109 513.174 42.2119 512.688C42.613 512.193 43.0892 511.817 43.6406 511.56C44.1992 511.295 44.8223 511.162 45.5098 511.162C46.054 511.162 46.5518 511.241 47.0029 511.398C47.4541 511.556 47.8408 511.807 48.1631 512.15C48.4925 512.494 48.7432 512.949 48.915 513.515C49.0941 514.08 49.1836 514.771 49.1836 515.588V523H46.0684V515.577C46.0684 515.062 45.9967 514.66 45.8535 514.374C45.7103 514.088 45.499 513.887 45.2197 513.772C44.9476 513.651 44.611 513.59 44.21 513.59C43.7946 513.59 43.4329 513.672 43.125 513.837C42.8242 514.002 42.5736 514.231 42.373 514.524C42.1797 514.811 42.0329 515.147 41.9326 515.534C41.8324 515.921 41.7822 516.336 41.7822 516.78ZM67.4238 518.714C67.4238 519.695 67.1947 520.522 66.7363 521.195C66.278 521.861 65.6478 522.366 64.8457 522.71C64.0508 523.047 63.1484 523.215 62.1387 523.215C61.1289 523.215 60.223 523.047 59.4209 522.71C58.6188 522.366 57.985 521.861 57.5195 521.195C57.054 520.522 56.8213 519.695 56.8213 518.714C56.8213 518.055 56.9538 517.461 57.2188 516.931C57.4837 516.394 57.8525 515.935 58.3252 515.556C58.805 515.169 59.3672 514.875 60.0117 514.675C60.6562 514.467 61.3581 514.363 62.1172 514.363C63.1341 514.363 64.0436 514.542 64.8457 514.9C65.6478 515.258 66.278 515.763 66.7363 516.415C67.1947 517.067 67.4238 517.833 67.4238 518.714ZM64.3086 518.51C64.3086 518.03 64.2155 517.618 64.0293 517.274C63.8503 516.924 63.596 516.655 63.2666 516.469C62.9372 516.283 62.554 516.189 62.1172 516.189C61.6803 516.189 61.2972 516.283 60.9678 516.469C60.6383 516.655 60.3805 516.924 60.1943 517.274C60.0153 517.618 59.9258 518.03 59.9258 518.51C59.9258 518.982 60.0153 519.391 60.1943 519.734C60.3805 520.078 60.6383 520.343 60.9678 520.529C61.3044 520.708 61.6947 520.798 62.1387 520.798C62.5827 520.798 62.9658 520.708 63.2881 520.529C63.6175 520.343 63.8682 520.078 64.04 519.734C64.2191 519.391 64.3086 518.982 64.3086 518.51ZM67.0908 511.506C67.0908 512.301 66.8796 513.006 66.457 513.622C66.0345 514.231 65.4473 514.707 64.6953 515.051C63.9505 515.395 63.0983 515.566 62.1387 515.566C61.1719 515.566 60.3125 515.395 59.5605 515.051C58.8086 514.707 58.2214 514.231 57.7988 513.622C57.3763 513.006 57.165 512.301 57.165 511.506C57.165 510.561 57.3763 509.766 57.7988 509.121C58.2285 508.469 58.8158 507.975 59.5605 507.639C60.3125 507.302 61.1647 507.134 62.1172 507.134C63.084 507.134 63.9398 507.302 64.6846 507.639C65.4365 507.975 66.0238 508.469 66.4463 509.121C66.876 509.766 67.0908 510.561 67.0908 511.506ZM63.9971 511.646C63.9971 511.223 63.9219 510.858 63.7715 510.55C63.6211 510.235 63.4062 509.991 63.127 509.819C62.8548 509.647 62.5182 509.562 62.1172 509.562C61.7305 509.562 61.3975 509.644 61.1182 509.809C60.846 509.973 60.6348 510.213 60.4844 510.528C60.3411 510.836 60.2695 511.209 60.2695 511.646C60.2695 512.068 60.3411 512.44 60.4844 512.763C60.6348 513.078 60.8496 513.325 61.1289 513.504C61.4082 513.683 61.7448 513.772 62.1387 513.772C62.5326 513.772 62.8656 513.683 63.1377 513.504C63.417 513.325 63.6283 513.078 63.7715 512.763C63.9219 512.44 63.9971 512.068 63.9971 511.646Z" fill="white"/>
</svg>
